<?xml version="1.0" encoding="utf-8"?>
<!-- Generator: Adobe Illustrator 22.1.0, SVG Export Plug-In . SVG Version: 6.00 Build 0)  -->
<svg version="1.1" id="Слой_1" xmlns="http://www.w3.org/2000/svg" xmlns:xlink="http://www.w3.org/1999/xlink" x="0px" y="0px"
	 width="31.9px" height="49px" viewBox="0 0 31.9 49" style="enable-background:new 0 0 31.9 49;" xml:space="preserve">
<g>
	<path style="fill:#00D7EC;" d="M23.5,7.3l-0.9,2.3c0.4,0.5,0.8,1,1.1,1.5L25,7.9L23.5,7.3z M23.5,7.3"/>
	<path style="fill:#FAF5E5;" d="M24.8,14.9c0.2-0.9,0.1-1.9-0.4-2.8C22.3,8,18,5.3,13.1,5.3C8.2,5.3,3.9,8,1.8,12.1
		C1.3,13,1.2,14,1.4,14.9H24.8z M24.8,14.9"/>
	<path style="fill:#00D7EC;" d="M24.8,5.4L26.4,7l-1.1,1.1l-1.6-1.6L24.8,5.4z M24.8,5.4"/>
	<path style="fill:#00D7EC;" d="M26.4,3.8L28,5.4l-1.1,1.1L25.3,5L26.4,3.8z M26.4,3.8"/>
	<path style="fill:#00D7EC;" d="M28,2.2l1.6,1.6L28.5,5l-1.6-1.6L28,2.2z M28,2.2"/>
	<path style="fill:#00D7EC;" d="M29.6,0.6l1.6,1.6l-1.1,1.1l-1.6-1.6L29.6,0.6z M29.6,0.6"/>
	<path style="fill:#3DABEF;" d="M22.5,10l-2,5.3h1.7l1.4-3.8C23.3,11,22.9,10.5,22.5,10L22.5,10z M22.5,10"/>
	<g>
		<path style="clip-path:url(#SVGID_2_);fill:#A46F3E;" d="M17.7,47.6H8.4c-1.5,0-2.7-1-3-2.5l-5-29.5c-0.1-0.4,0.2-0.7,0.6-0.7
			h24.1c0.4,0,0.7,0.3,0.6,0.7l-5,29.5C20.5,46.6,19.2,47.6,17.7,47.6L17.7,47.6z M17.7,47.6"/>
		<path style="clip-path:url(#SVGID_2_);fill:#8E5B32;" d="M17.7,48H8.4c-1.7,0-3.1-1.2-3.4-2.8L0,15.7c-0.1-0.3,0-0.6,0.2-0.8
			c0.2-0.2,0.5-0.4,0.8-0.4h24.1c0.3,0,0.6,0.1,0.8,0.4c0.2,0.2,0.3,0.5,0.2,0.8l-5,29.5C20.8,46.8,19.4,48,17.7,48L17.7,48z
			 M1,15.3c-0.1,0-0.1,0.1-0.2,0.1c0,0-0.1,0.1,0,0.2l5,29.5c0.2,1.3,1.3,2.2,2.6,2.2h9.3c1.3,0,2.4-0.9,2.6-2.2l5-29.5
			c0-0.1,0-0.2,0-0.2c0,0-0.1-0.1-0.2-0.1H1z M1,15.3"/>
	</g>
	<path style="fill:#CC9669;" d="M11,32.5l-1.8,1.6c-0.6,0.6-1.7,0.6-2.3-0.1l-1.6-1.8c-0.6-0.6-0.6-1.7,0.1-2.3l1.8-1.6
		c0.6-0.6,1.7-0.6,2.3,0.1l1.6,1.8C11.6,30.9,11.6,31.9,11,32.5L11,32.5z M11,32.5"/>
	<path style="fill:#E0AB85;" d="M15.8,26.3L14,28c-0.6,0.6-1.7,0.6-2.3-0.1l-1.6-1.8c-0.6-0.6-0.6-1.7,0.1-2.3l1.8-1.6
		c0.6-0.6,1.7-0.6,2.3,0.1l1.6,1.8C16.4,24.7,16.4,25.7,15.8,26.3L15.8,26.3z M15.8,26.3"/>
	<path style="fill:#DBB59C;" d="M9.4,22.3L7.6,24C7,24.6,6,24.5,5.4,23.9l-1.6-1.8c-0.6-0.6-0.6-1.7,0.1-2.3l1.8-1.6
		c0.6-0.6,1.7-0.6,2.3,0.1l1.6,1.8C10.1,20.7,10,21.7,9.4,22.3L9.4,22.3z M9.4,22.3"/>
	<path style="fill:#DBB59C;" d="M18.2,43.1l-1.8,1.6c-0.6,0.6-1.7,0.6-2.3-0.1l-1.6-1.8c-0.6-0.6-0.6-1.7,0.1-2.3l1.8-1.6
		c0.6-0.6,1.7-0.6,2.3,0.1l1.6,1.8C18.9,41.5,18.8,42.5,18.2,43.1L18.2,43.1z M18.2,43.1"/>
	<path style="fill:#915D33;" d="M20.5,15.3L9.1,44.9l1.5,0.6l11.6-30.2H20.5z M20.5,15.3"/>
	<path style="fill:#6A3311;" d="M17.1,28.9c0,0.4-0.4,0.8-0.8,0.8c-0.4,0-0.8-0.4-0.8-0.8c0-0.4,0.4-0.8,0.8-0.8
		C16.7,28.1,17.1,28.5,17.1,28.9L17.1,28.9z M17.1,28.9"/>
	<path style="fill:#6A3311;" d="M18.7,32.9c0,0.4-0.4,0.8-0.8,0.8s-0.8-0.4-0.8-0.8c0-0.4,0.4-0.8,0.8-0.8S18.7,32.5,18.7,32.9
		L18.7,32.9z M18.7,32.9"/>
	<path style="fill:#CC9669;" d="M21.1,36.9c0,0.4-0.4,0.8-0.8,0.8c-0.4,0-0.8-0.4-0.8-0.8c0-0.4,0.4-0.8,0.8-0.8
		C20.7,36.1,21.1,36.5,21.1,36.9L21.1,36.9z M21.1,36.9"/>
	<path style="fill:#E0AB85;" d="M14.7,34.5c0,0.4-0.4,0.8-0.8,0.8c-0.4,0-0.8-0.4-0.8-0.8c0-0.4,0.4-0.8,0.8-0.8
		C14.3,33.7,14.7,34.1,14.7,34.5L14.7,34.5z M14.7,34.5"/>
	<path style="fill:#E0AB85;" d="M20.3,28.1c0,0.4-0.4,0.8-0.8,0.8c-0.4,0-0.8-0.4-0.8-0.8c0-0.4,0.4-0.8,0.8-0.8
		C19.9,27.3,20.3,27.7,20.3,28.1L20.3,28.1z M20.3,28.1"/>
	<path style="fill:#6A3311;" d="M8.3,39.4c0,0.4-0.4,0.8-0.8,0.8c-0.4,0-0.8-0.4-0.8-0.8c0-0.4,0.4-0.8,0.8-0.8
		C7.9,38.6,8.3,39,8.3,39.4L8.3,39.4z M8.3,39.4"/>
	<path style="fill:#E0AB85;" d="M9.9,44.2c0,0.4-0.4,0.8-0.8,0.8c-0.4,0-0.8-0.4-0.8-0.8c0-0.4,0.4-0.8,0.8-0.8
		C9.5,43.4,9.9,43.8,9.9,44.2L9.9,44.2z M9.9,44.2"/>
	<path style="fill:#FAF5E5;" d="M5.1,12.6c0,0,2.5-4.7,8.9-4.6"/>
	<path style="fill:#FFFFFF;" d="M5.1,13.4c-0.1,0-0.3,0-0.4-0.1c-0.4-0.2-0.5-0.7-0.3-1.1c0.1-0.2,2.7-5,9.4-5c0.1,0,0.1,0,0.2,0
		c0.4,0,0.8,0.4,0.8,0.8c0,0.4-0.4,0.8-0.8,0.8c-0.1,0-0.1,0-0.2,0c-5.8,0-8,4.1-8,4.2C5.7,13.3,5.4,13.4,5.1,13.4L5.1,13.4z
		 M5.1,13.4"/>
</g>
</svg>
