<?xml version="1.0" encoding="utf-8"?>
<!-- Generator: Adobe Illustrator 22.1.0, SVG Export Plug-In . SVG Version: 6.00 Build 0)  -->
<svg version="1.1" id="Слой_1" xmlns="http://www.w3.org/2000/svg" xmlns:xlink="http://www.w3.org/1999/xlink" x="0px" y="0px"
	 width="46.4px" height="42.4px" viewBox="0 0 46.4 42.4" style="enable-background:new 0 0 46.4 42.4;" xml:space="preserve">
<g>
	<path style="fill:#D2D5D7;" d="M44.8,28.8H1.6c-0.9,0-1.6-0.7-1.6-1.6s0.7-1.6,1.6-1.6h43.2c0.9,0,1.6,0.7,1.6,1.6
		S45.7,28.8,44.8,28.8L44.8,28.8z M44.8,28.8"/>
	<path style="fill:#E6E6E6;" d="M2,28.8c2.4,3.7,12.4,8.2,12.4,13.6H32c0-5.4,10.1-9.9,12.4-13.6H2z M2,28.8"/>
	<path style="fill:#DBB579;" d="M7.2,24c-0.4,0-0.8-0.4-0.8-0.8c0-4.9,4-8.8,8.8-8.8h1.6c0.4,0,0.8,0.4,0.8,0.8
		c0,0.4-0.4,0.8-0.8,0.8h-1.6c-4,0-7.2,3.2-7.2,7.2C8,23.6,7.6,24,7.2,24L7.2,24z M7.2,24"/>
	<path style="fill:#DBB579;" d="M12,24c-0.4,0-0.8-0.4-0.8-0.8c0-2.2,1.8-4,4-4h4c0.4,0,0.8,0.4,0.8,0.8c0,0.4-0.4,0.8-0.8,0.8h-4
		c-1.3,0-2.4,1.1-2.4,2.4C12.8,23.6,12.4,24,12,24L12,24z M12,24"/>
	<path style="fill:#FBD490;" d="M9.6,24c-0.4,0-0.8-0.4-0.8-0.8c0-3.5,2.9-6.4,6.4-6.4h3.2c0.4,0,0.8,0.4,0.8,0.8
		c0,0.4-0.4,0.8-0.8,0.8h-3.2c-2.6,0-4.8,2.2-4.8,4.8C10.4,23.6,10,24,9.6,24L9.6,24z M9.6,24"/>
	<path style="fill:#FBD490;" d="M19.2,23.2h-4c-0.4,0-0.8-0.4-0.8-0.8c0-0.4,0.4-0.8,0.8-0.8h4c0.4,0,0.8,0.4,0.8,0.8
		C20,22.8,19.6,23.2,19.2,23.2L19.2,23.2z M19.2,23.2"/>
	<path style="fill:#FBD490;" d="M38.4,24c-0.4,0-0.8-0.4-0.8-0.8c0-4-3.2-7.2-7.2-7.2h-5.6c-0.4,0-0.8-0.4-0.8-0.8
		c0-0.4,0.4-0.8,0.8-0.8h5.6c4.9,0,8.8,3.9,8.8,8.8C39.2,23.6,38.8,24,38.4,24L38.4,24z M38.4,24"/>
	<path style="fill:#FBD490;" d="M33.6,24c-0.4,0-0.8-0.4-0.8-0.8c0-1.3-1.1-2.4-2.4-2.4h-4c-0.4,0-0.8-0.4-0.8-0.8
		c0-0.4,0.4-0.8,0.8-0.8h4c2.2,0,4,1.8,4,4C34.4,23.6,34,24,33.6,24L33.6,24z M33.6,24"/>
	<path style="fill:#DBB579;" d="M36,24c-0.4,0-0.8-0.4-0.8-0.8c0-2.6-2.2-4.8-4.8-4.8h-4.8c-0.4,0-0.8-0.4-0.8-0.8
		c0-0.4,0.4-0.8,0.8-0.8h4.8c3.5,0,6.4,2.9,6.4,6.4C36.8,23.6,36.4,24,36,24L36,24z M36,24"/>
	<path style="fill:#DBB579;" d="M30.4,23.2h-4c-0.4,0-0.8-0.4-0.8-0.8c0-0.4,0.4-0.8,0.8-0.8h4c0.4,0,0.8,0.4,0.8,0.8
		C31.2,22.8,30.8,23.2,30.4,23.2L30.4,23.2z M30.4,23.2"/>
	<path style="fill:#FBD490;" d="M21.6,24c-0.4,0-0.8-0.4-0.8-0.8c0-7-2.1-10.4-6.4-10.4c-0.4,0-0.8,0.4-0.8,0.8
		c0,0.4-0.4,0.8-0.8,0.8c-0.4,0-0.8-0.4-0.8-0.8c0-1.3,1.1-2.4,2.4-2.4c3.7,0,8,2.1,8,12C22.4,23.6,22,24,21.6,24L21.6,24z M21.6,24
		"/>
	<path style="fill:#DBB579;" d="M24,24c-0.4,0-0.8-0.4-0.8-0.8c0-3.8-0.9-12.8-8.8-12.8c-2.2,0-4,1.8-4,4v0.8c0,0.4-0.4,0.8-0.8,0.8
		c-0.4,0-0.8-0.4-0.8-0.8v-0.8c0-3.1,2.5-5.6,5.6-5.6c6.5,0,10.4,5.4,10.4,14.4C24.8,23.6,24.4,24,24,24L24,24z M24,24"/>
	<path style="fill:#A46F3E;" d="M24,5.2c0,2-1.6,3.6-3.6,3.6c-2,0-3.6-1.6-3.6-3.6c0-2,1.6-3.6,3.6-3.6C22.4,1.6,24,3.2,24,5.2
		L24,5.2z M24,5.2"/>
	<path style="fill:#A46F3E;" d="M38.4,10.8c0,2-1.6,3.6-3.6,3.6c-2,0-3.6-1.6-3.6-3.6c0-2,1.6-3.6,3.6-3.6
		C36.8,7.2,38.4,8.8,38.4,10.8L38.4,10.8z M38.4,10.8"/>
	<path style="fill:#4C312C;" d="M30.4,10c0,2-1.6,3.6-3.6,3.6c-2,0-3.6-1.6-3.6-3.6c0-2,1.6-3.6,3.6-3.6C28.8,6.4,30.4,8,30.4,10
		L30.4,10z M30.4,10"/>
	<path style="fill:#4C312C;" d="M35.2,3.6c0,2-1.6,3.6-3.6,3.6c-2,0-3.6-1.6-3.6-3.6c0-2,1.6-3.6,3.6-3.6C33.6,0,35.2,1.6,35.2,3.6
		L35.2,3.6z M35.2,3.6"/>
	<path style="fill:#F75B57;" d="M33.1,39.2H13.3c0.3,0.5,0.6,1.1,0.8,1.6h18.2C32.5,40.3,32.8,39.7,33.1,39.2L33.1,39.2z M33.1,39.2
		"/>
	<path style="fill:#FFFFFF;" d="M33.1,39.2c0.4-0.5,0.8-1.1,1.3-1.6H12c0.5,0.5,0.9,1.1,1.3,1.6H33.1z M33.1,39.2"/>
	<path style="fill:#88C057;" d="M10.3,36c0.6,0.5,1.2,1.1,1.7,1.6h22.4c0.5-0.5,1.1-1.1,1.7-1.6H10.3z M10.3,36"/>
</g>
</svg>
