<?xml version="1.0" encoding="utf-8"?>
<!-- Generator: Adobe Illustrator 22.1.0, SVG Export Plug-In . SVG Version: 6.00 Build 0)  -->
<svg version="1.1" id="Слой_1" xmlns="http://www.w3.org/2000/svg" xmlns:xlink="http://www.w3.org/1999/xlink" x="0px" y="0px"
	 width="38.9px" height="41px" viewBox="0 0 38.9 41" style="enable-background:new 0 0 38.9 41;" xml:space="preserve">
<g>
	<g>
		<defs>
			<rect id="SVGID_1_" y="3.1" width="38.9" height="37.9"/>
		</defs>
		<clipPath id="SVGID_2_">
			<use xlink:href="#SVGID_1_"  style="overflow:visible;"/>
		</clipPath>
		<path style="clip-path:url(#SVGID_2_);fill:#E6E6E6;" d="M17.4,24.9H2.6c-1.8,0-3-1.8-2.5-3.5c1-3.2,2.2-5.3,5.5-5.3h8.8
			c3.3,0,4.4,2.1,5.5,5.3C20.4,23.1,19.2,24.9,17.4,24.9L17.4,24.9z M17.4,24.9"/>
	</g>
	<path style="fill:#455560;" d="M20,22.6c-0.2,1.3-1.2,2.3-2.6,2.3H2.6c-1.4,0-2.4-1-2.6-2.3c0,0,0,0,0,0v13.2
		c0,2.3,1.9,4.2,4.2,4.2h11.6c2.3,0,4.2-1.9,4.2-4.2L20,22.6C20,22.6,20,22.6,20,22.6L20,22.6z M20,22.6"/>
	<path style="fill:#D75A4A;" d="M14.4,20.5c0,1.1-2,2-4.4,2c-2.4,0-4.4-0.9-4.4-2c0-1.1,2-2,4.4-2C12.4,18.5,14.4,19.4,14.4,20.5
		L14.4,20.5z M14.4,20.5"/>
	<path style="fill:#E6E6E6;" d="M27,12.1H12.2c-1.8,0-3-1.8-2.5-3.5c1-3.2,2.2-5.3,5.5-5.3H24c3.3,0,4.4,2.1,5.5,5.3
		C30,10.3,28.8,12.1,27,12.1L27,12.1z M27,12.1"/>
	<path style="fill:#D75A4A;" d="M24,7.7c0,1.1-2,2-4.4,2c-2.4,0-4.4-0.9-4.4-2c0-1.1,2-2,4.4-2C22,5.7,24,6.6,24,7.7L24,7.7z
		 M24,7.7"/>
	<path style="fill:#E6E6E6;" d="M38.3,21.4c-1-3.2-3.8-5.3-7.1-5.3h-9.6c-2.6,0-1.5,1.4-2.4,3.5c0.2,0.5,0.5,1.1,0.7,1.8
		c0.3,1,0,2.1-0.7,2.7c0.5,0.5,1.1,0.8,1.8,0.8h14.8C37.6,24.9,38.8,23.1,38.3,21.4L38.3,21.4z M38.3,21.4"/>
	<path style="fill:#38454F;" d="M38.4,22.6c-0.2,1.3-1.2,2.3-2.6,2.3H21c-0.4,0-0.7-0.1-1-0.2v11.2c0,0.9-0.3,1.8-0.8,2.4
		c0.8,1.1,2,1.8,3.4,1.8h11.6c2.3,0,4.2-1.9,4.2-4.2L38.4,22.6C38.4,22.6,38.4,22.6,38.4,22.6L38.4,22.6z M38.4,22.6"/>
	<path style="fill:#38454F;" d="M14.4,16.1c2.6,0,3.9,1.4,4.8,3.5c0.9-2.1-0.2-3.5,2.4-3.5h8V9.8c0,0,0,0,0,0
		c-0.2,1.2-1.2,2.3-2.6,2.3H12.2c-1.4,0-2.4-1-2.6-2.3c0,0,0,0,0,0v6.2H14.4z M14.4,16.1"/>
	<path style="fill:#D75A4A;" d="M32.8,20.5c0,1.1-2,2-4.4,2c-2.4,0-4.4-0.9-4.4-2c0-1.1,2-2,4.4-2C30.8,18.5,32.8,19.4,32.8,20.5
		L32.8,20.5z M32.8,20.5"/>
	<path style="fill:#546A79;" d="M4,37.7c-0.4,0-0.8-0.4-0.8-0.8v-4.8c0-0.4,0.4-0.8,0.8-0.8c0.4,0,0.8,0.4,0.8,0.8v4.8
		C4.8,37.3,4.4,37.7,4,37.7L4,37.7z M4,37.7"/>
	<path style="fill:#546A79;" d="M4,30.5c-0.4,0-0.8-0.4-0.8-0.8v-2.4c0-0.4,0.4-0.8,0.8-0.8c0.4,0,0.8,0.4,0.8,0.8v2.4
		C4.8,30.1,4.4,30.5,4,30.5L4,30.5z M4,30.5"/>
	<path style="fill:#546A79;" d="M24,37.7c-0.4,0-0.8-0.4-0.8-0.8v-4.8c0-0.4,0.4-0.8,0.8-0.8s0.8,0.4,0.8,0.8v4.8
		C24.8,37.3,24.4,37.7,24,37.7L24,37.7z M24,37.7"/>
	<path style="fill:#546A79;" d="M24,30.5c-0.4,0-0.8-0.4-0.8-0.8v-2.4c0-0.4,0.4-0.8,0.8-0.8s0.8,0.4,0.8,0.8v2.4
		C24.8,30.1,24.4,30.5,24,30.5L24,30.5z M24,30.5"/>
</g>
</svg>
