<?xml version="1.0" encoding="utf-8"?>
<!-- Generator: Adobe Illustrator 22.1.0, SVG Export Plug-In . SVG Version: 6.00 Build 0)  -->
<svg version="1.1" id="Слой_1" xmlns="http://www.w3.org/2000/svg" xmlns:xlink="http://www.w3.org/1999/xlink" x="0px" y="0px"
	 width="46.8px" height="26.9px" viewBox="0 0 46.8 26.9" style="enable-background:new 0 0 46.8 26.9;" xml:space="preserve">
<g>
	<g>
		<path style="clip-path:url(#SVGID_2_);fill:#E6E6E6;" d="M40,25.9H6.4c-1.5,0-1.2-2.3-2.1-3.5l-4.2-2.5c-0.4-0.5,0-1.2,0.6-1.2
			h44.9c0.6,0,1,0.7,0.6,1.2l-4.2,2.5C41.3,23.6,41.5,25.9,40,25.9L40,25.9z M40,25.9"/>
	</g>
	<path style="fill:#FBD490;" d="M42.5,17.6c-0.5-0.3-0.8-0.9-0.7-1.5c0-0.2,0-0.4,0-0.5c-0.2-0.6-0.7-1.1-1.3-1.2
		c-0.3-0.1-0.8,0-0.8-0.1c0-0.8-0.7-1.5-1.5-1.5c-0.3,0-0.7-0.1-0.7-0.4c0-1-0.8-1.8-1.8-1.8c-0.1,0.1-0.2,0.2-0.4,0.3l-2.3,0.7
		c-0.4,0.1-0.9-0.1-1-0.5l-0.4-1.5c-1.5-0.1-2.9-0.1-4.3-0.2c-0.1,1.2-1.1,2.2-2.4,2.2c-1.2,0-2.2-0.9-2.4-2.1
		c-1.8,0.1-3.4,0.3-4.9,0.5l-2,2.2c-0.3,0.3-0.7,0.3-0.9,0.1l-0.8-0.7c-0.3-0.2-0.3-0.6-0.1-0.9c-1.6,0.3-2.9,0.6-3.8,0.9l-0.7,1.3
		c-0.2,0.4-0.7,0.5-1.1,0.3l-1.7-0.9c-0.1,0.2-0.2,0.3-0.2,0.5c0.2,1.1-1,2-1.7,2.1c-0.6,0-0.7,1.2-0.7,1.7c0,0.1-1.5,0.7-1.5,1.5
		c0,0.2,0.1,0.4,0.1,0.6c0,0,0,0.1,0,0.1h40.6C43.1,18.2,42.9,17.8,42.5,17.6L42.5,17.6z M42.5,17.6"/>
	<path style="fill:#F7E2BF;" d="M10.8,15c-0.2,0-0.3,0-0.4-0.1c-0.4-0.2-0.5-0.7-0.2-1.1l0.6-0.9c0.3-0.4,0.7-0.5,1.1-0.2
		c0.4,0.3,0.5,0.8,0.2,1.1l-0.6,0.9C11.3,14.9,11.1,15,10.8,15L10.8,15z M10.8,15"/>
	<path style="fill:#EA5E35;" d="M8.2,13.1L6.1,12c-0.4-0.2-0.5-0.7-0.3-1.1l1.1-2.1C7,8.4,7.5,8.2,7.9,8.4L10,9.5
		c0.4,0.2,0.5,0.7,0.3,1.1l-1.1,2.1C9.1,13.1,8.6,13.3,8.2,13.1L8.2,13.1z M8.2,13.1"/>
	<path style="fill:#F7E2BF;" d="M8.7,16.9c-0.1,0-0.3,0-0.4-0.1l-0.9-0.6c-0.4-0.2-0.5-0.7-0.3-1.1c0.2-0.4,0.7-0.5,1.1-0.3l0.9,0.6
		c0.4,0.2,0.5,0.7,0.3,1.1C9.2,16.8,8.9,16.9,8.7,16.9L8.7,16.9z M8.7,16.9"/>
	<path style="fill:#F7E2BF;" d="M12.4,18.2C12.4,18.2,12.4,18.2,12.4,18.2c-0.5-0.1-0.8-0.5-0.8-0.9l0.1-1.1
		c0.1-0.4,0.5-0.8,0.9-0.7c0.4,0.1,0.8,0.5,0.7,0.9l-0.1,1.1C13.2,17.9,12.8,18.2,12.4,18.2L12.4,18.2z M12.4,18.2"/>
	<path style="fill:#F7E2BF;" d="M15.1,15.4C15.1,15.4,15.1,15.4,15.1,15.4L14,15.3c-0.4,0-0.8-0.4-0.7-0.9c0-0.4,0.4-0.8,0.9-0.7
		l1.1,0.1c0.4,0,0.8,0.4,0.7,0.9C15.9,15.1,15.6,15.4,15.1,15.4L15.1,15.4z M15.1,15.4"/>
	<path style="fill:#F7E2BF;" d="M18.2,17.8c-0.2,0-0.3,0-0.5-0.1c-0.4-0.2-0.5-0.7-0.2-1.1l0.6-0.9c0.3-0.4,0.7-0.5,1.1-0.2
		c0.4,0.3,0.5,0.7,0.2,1.1l-0.6,0.9C18.7,17.7,18.5,17.8,18.2,17.8L18.2,17.8z M18.2,17.8"/>
	<path style="fill:#F7E2BF;" d="M18.5,14.1c-0.1,0-0.3,0-0.4-0.1l-0.9-0.6c-0.4-0.2-0.5-0.7-0.3-1.1c0.2-0.4,0.7-0.5,1.1-0.3
		l0.9,0.6c0.4,0.2,0.5,0.7,0.3,1.1C19,14,18.8,14.1,18.5,14.1L18.5,14.1z M18.5,14.1"/>
	<path style="fill:#F7E2BF;" d="M36.1,16.9c-0.2,0-0.3,0-0.4-0.1c-0.4-0.2-0.5-0.8-0.2-1.1l0.6-0.9c0.3-0.4,0.8-0.5,1.1-0.2
		c0.4,0.2,0.5,0.7,0.2,1.1l-0.6,0.9C36.6,16.8,36.3,16.9,36.1,16.9L36.1,16.9z M36.1,16.9"/>
	<path style="fill:#F7E2BF;" d="M34.3,14.5c-0.1,0-0.3,0-0.4-0.1L33,13.8c-0.4-0.2-0.5-0.7-0.3-1.1c0.2-0.4,0.7-0.5,1.1-0.3l0.9,0.6
		c0.4,0.2,0.5,0.7,0.3,1.1C34.8,14.4,34.6,14.5,34.3,14.5L34.3,14.5z M34.3,14.5"/>
	<path style="fill:#F7E2BF;" d="M22.8,13.5C22.8,13.5,22.7,13.5,22.8,13.5l-1.2-0.1c-0.4,0-0.8-0.4-0.7-0.9c0-0.4,0.4-0.8,0.9-0.7
		l1.1,0.1c0.4,0,0.8,0.4,0.7,0.9C23.6,13.2,23.2,13.5,22.8,13.5L22.8,13.5z M22.8,13.5"/>
	<path style="fill:#F7E2BF;" d="M31.6,19.6C31.6,19.6,31.6,19.6,31.6,19.6l-1.2-0.1c-0.4,0-0.8-0.4-0.7-0.9c0-0.4,0.4-0.8,0.9-0.7
		l1.1,0.1c0.4,0,0.8,0.4,0.7,0.9C32.4,19.3,32,19.6,31.6,19.6L31.6,19.6z M31.6,19.6"/>
	<path style="fill:#F7E2BF;" d="M23.3,17.1c-0.1,0-0.1,0-0.2,0L22,16.8c-0.4-0.1-0.7-0.6-0.6-1c0.1-0.4,0.6-0.7,1-0.6l1.1,0.3
		c0.4,0.1,0.7,0.6,0.6,1C24,16.9,23.6,17.1,23.3,17.1L23.3,17.1z M23.3,17.1"/>
	<path style="fill:#F7E2BF;" d="M27.4,16.7c-0.3,0-0.7-0.2-0.8-0.6c-0.1-0.4,0.1-0.9,0.5-1l1.1-0.3c0.4-0.1,0.9,0.1,1,0.5
		c0.1,0.4-0.1,0.9-0.5,1l-1.1,0.3C27.6,16.6,27.5,16.7,27.4,16.7L27.4,16.7z M27.4,16.7"/>
	<path style="fill:#F7E2BF;" d="M25.7,14.7c-0.2,0-0.4-0.1-0.6-0.2c-0.3-0.3-0.3-0.8,0-1.1l0.8-0.8c0.3-0.3,0.8-0.3,1.1,0
		c0.3,0.3,0.3,0.8,0,1.1l-0.8,0.8C26.1,14.6,25.9,14.7,25.7,14.7L25.7,14.7z M25.7,14.7"/>
	<path style="fill:#F7E2BF;" d="M32.1,16.6c-0.4,0-0.7-0.2-0.8-0.6L31,14.9c-0.1-0.4,0.1-0.9,0.6-1c0.4-0.1,0.9,0.1,1,0.6l0.3,1.1
		c0.1,0.4-0.1,0.9-0.6,1C32.2,16.6,32.2,16.6,32.1,16.6L32.1,16.6z M32.1,16.6"/>
	<path style="fill:#F7E2BF;" d="M29.8,12.3C29.8,12.3,29.8,12.3,29.8,12.3l-1.2-0.1c-0.4,0-0.8-0.4-0.7-0.9c0-0.4,0.4-0.8,0.9-0.7
		l1.1,0.1c0.4,0,0.8,0.4,0.7,0.9C30.6,12,30.2,12.3,29.8,12.3L29.8,12.3z M29.8,12.3"/>
	<path style="fill:#F7994D;" d="M31.9,10.9l-0.7-2.3c-0.1-0.4,0.1-0.9,0.6-1L34.1,7c0.4-0.1,0.9,0.1,1,0.5l0.7,2.3
		c0.1,0.4-0.1,0.9-0.6,1l-2.3,0.7C32.5,11.6,32,11.4,31.9,10.9L31.9,10.9z M31.9,10.9"/>
	<path style="fill:#FDD807;" d="M19.4,5.3L18.7,3c-0.1-0.4,0.1-0.9,0.5-1l2.3-0.7c0.4-0.1,0.9,0.1,1,0.5l0.7,2.3
		c0.1,0.4-0.1,0.9-0.5,1l-2.3,0.7C19.9,6,19.5,5.8,19.4,5.3L19.4,5.3z M19.4,5.3"/>
	<path style="fill:#F6A36E;" d="M27.2,9.1c0,1.3-1.1,2.4-2.4,2.4c-1.3,0-2.4-1.1-2.4-2.4c0-1.3,1.1-2.4,2.4-2.4
		C26.2,6.7,27.2,7.8,27.2,9.1L27.2,9.1z M27.2,9.1"/>
	<path style="fill:#FBB50C;" d="M14.4,5.9c0,1.3-1.1,2.4-2.4,2.4c-1.3,0-2.4-1.1-2.4-2.4c0-1.3,1.1-2.4,2.4-2.4
		C13.4,3.5,14.4,4.6,14.4,5.9L14.4,5.9z M14.4,5.9"/>
	<path style="fill:#71B43D;" d="M19,8.3l-3.4,3.8c-0.2,0.3-0.7,0.3-0.9,0.1l-0.8-0.7c-0.3-0.2-0.3-0.7,0-0.9l3.4-3.8
		c0.2-0.3,0.7-0.3,0.9,0l0.8,0.7C19.2,7.6,19.2,8.1,19,8.3L19,8.3z M19,8.3"/>
	<path style="fill:#98DF2A;" d="M28.2,6.3l-1.7-4.7c-0.1-0.3,0.1-0.7,0.4-0.9l1-0.4c0.3-0.1,0.7,0.1,0.9,0.4l1.7,4.7
		c0.1,0.4-0.1,0.7-0.4,0.9l-1,0.4C28.7,6.9,28.3,6.7,28.2,6.3L28.2,6.3z M28.2,6.3"/>
	<path style="fill:#FFFFFF;" d="M39.2,23.5H14.4c-0.4,0-0.8-0.4-0.8-0.8c0-0.4,0.4-0.8,0.8-0.8h24.8c0.4,0,0.8,0.4,0.8,0.8
		C40,23.2,39.7,23.5,39.2,23.5L39.2,23.5z M39.2,23.5"/>
	<path style="fill:#FFFFFF;" d="M10.5,23.5H7.2c-0.4,0-0.8-0.4-0.8-0.8c0-0.4,0.4-0.8,0.8-0.8h3.3c0.4,0,0.8,0.4,0.8,0.8
		C11.3,23.2,10.9,23.5,10.5,23.5L10.5,23.5z M10.5,23.5"/>
</g>
</svg>
