<?xml version="1.0" encoding="utf-8"?>
<!-- Generator: Adobe Illustrator 22.1.0, SVG Export Plug-In . SVG Version: 6.00 Build 0)  -->
<svg version="1.1" id="Слой_1" xmlns="http://www.w3.org/2000/svg" xmlns:xlink="http://www.w3.org/1999/xlink" x="0px" y="0px"
	 width="31.2px" height="46.4px" viewBox="0 0 31.2 46.4" style="enable-background:new 0 0 31.2 46.4;" xml:space="preserve">
<g>
	<path style="fill:#ED7161;" d="M29.5,46.4H12.1c-0.9,0-1.7-0.8-1.7-1.7V10.1c0-0.7,0.6-1.3,1.3-1.3h18.2c0.7,0,1.3,0.6,1.3,1.3
		v34.6C31.2,45.6,30.4,46.4,29.5,46.4L29.5,46.4z M29.5,46.4"/>
	<path style="fill:#D13834;" d="M25.6,8.8H16L19.7,0h2.2L25.6,8.8z M25.6,8.8"/>
	<rect x="10.4" y="12.8" style="fill:#D75A4A;" width="20.8" height="1.6"/>
	<rect x="13.6" y="8.8" style="fill:#D75A4A;" width="1.6" height="4.8"/>
	<rect x="17.6" y="8.8" style="fill:#D75A4A;" width="1.6" height="4.8"/>
	<rect x="21.6" y="8.8" style="fill:#D75A4A;" width="1.6" height="4.8"/>
	<rect x="26.4" y="8.8" style="fill:#D75A4A;" width="1.6" height="4.8"/>
	<path style="fill:#D13834;" d="M28.8,28.8c0,4.4-3.6,8-8,8s-8-3.6-8-8c0-4.4,3.6-8,8-8S28.8,24.4,28.8,28.8L28.8,28.8z M28.8,28.8"
		/>
</g>
<g>
	<path style="fill:#F9DA49;" d="M16.9,46.4H1.5c-0.8,0-1.5-0.7-1.5-1.5V14.3c0-0.6,0.5-1.1,1.1-1.1h16.1c0.6,0,1.1,0.5,1.1,1.1v30.6
		C18.4,45.7,17.7,46.4,16.9,46.4L16.9,46.4z M16.9,46.4"/>
	<rect y="16.7" style="fill:#F9EA80;" width="18.4" height="1.4"/>
	<rect x="2.8" y="13.1" style="fill:#F9EA80;" width="1.4" height="4.2"/>
	<rect x="6.4" y="13.1" style="fill:#F9EA80;" width="1.4" height="4.2"/>
	<rect x="9.9" y="13.1" style="fill:#F9EA80;" width="1.4" height="4.2"/>
	<rect x="14.2" y="13.1" style="fill:#F9EA80;" width="1.4" height="4.2"/>
	<path style="fill:#F9EA80;" d="M9.2,24.5l7.1,7.1l-7.1,7.1l-7.1-7.1L9.2,24.5z M9.2,24.5"/>
	<path style="fill:#F9D70B;" d="M13.4,13.1H5l3.3-7.8h2L13.4,13.1z M13.4,13.1"/>
</g>
</svg>
