<?xml version="1.0" encoding="utf-8"?>
<!-- Generator: Adobe Illustrator 22.1.0, SVG Export Plug-In . SVG Version: 6.00 Build 0)  -->
<svg version="1.1" id="artwork" xmlns="http://www.w3.org/2000/svg" xmlns:xlink="http://www.w3.org/1999/xlink" x="0px" y="0px"
	 viewBox="0 0 121.5 36" style="enable-background:new 0 0 121.5 36;" xml:space="preserve">
<g>
	<g>
		<path d="M117,36H4.5C2,36,0,34,0,31.5v-27C0,2,2,0,4.5,0H117c2.5,0,4.5,2,4.5,4.5v27C121.5,34,119.5,36,117,36z"/>
	</g>
	<g>
		<g>
			<path style="fill:#A6A6A6;" d="M117,0.7c2.1,0,3.8,1.7,3.8,3.8v27c0,2.1-1.7,3.8-3.8,3.8H4.5c-2.1,0-3.8-1.7-3.8-3.8v-27
				c0-2.1,1.7-3.8,3.8-3.8L117,0.7 M117,0H4.5C2,0,0,2,0,4.5v27C0,34,2,36,4.5,36H117c2.5,0,4.5-2,4.5-4.5v-27
				C121.5,2,119.5,0,117,0L117,0z"/>
		</g>
	</g>
	<path style="fill:#FFFFFF;" d="M61.3,19.6c-2.1,0-3.8,1.6-3.8,3.8s1.7,3.8,3.8,3.8s3.8-1.6,3.8-3.8C65.2,21.2,63.4,19.6,61.3,19.6z
		 M61.3,25.7c-1.2,0-2.2-1-2.2-2.3c0-1.4,1-2.3,2.2-2.3s2.2,0.9,2.2,2.3C63.5,24.8,62.5,25.7,61.3,25.7z M52.9,19.6
		c-2.1,0-3.8,1.6-3.8,3.8s1.7,3.8,3.8,3.8s3.8-1.6,3.8-3.8C56.8,21.2,55.1,19.6,52.9,19.6z M52.9,25.7c-1.2,0-2.2-1-2.2-2.3
		c0-1.4,1-2.3,2.2-2.3s2.2,0.9,2.2,2.3C55.1,24.8,54.1,25.7,52.9,25.7z M43,20.8v1.6h3.9c-0.1,0.9-0.4,1.6-0.9,2
		c-0.6,0.6-1.4,1.2-3,1.2c-2.4,0-4.3-1.9-4.3-4.3S40.6,17,43,17c1.3,0,2.2,0.5,2.9,1.2L47,17c-1-0.9-2.3-1.6-4.1-1.6
		c-3.3,0-6,2.7-6,5.9c0,3.3,2.8,5.9,6,5.9c1.8,0,3.1-0.6,4.1-1.7c1.1-1.1,1.4-2.6,1.4-3.8c0-0.4,0-0.7-0.1-1H43V20.8z M83.7,22
		c-0.3-0.9-1.3-2.4-3.3-2.4s-3.6,1.6-3.6,3.8c0,2.1,1.6,3.8,3.8,3.8c1.8,0,2.8-1.1,3.2-1.7l-1.3-0.9c-0.4,0.6-1,1.1-1.9,1.1
		s-1.5-0.4-1.9-1.2l5.1-2.1L83.7,22z M78.5,23.3c0-1.5,1.1-2.2,2-2.2c0.7,0,1.2,0.3,1.4,0.8L78.5,23.3z M74.4,27H76V15.7h-1.7
		L74.4,27L74.4,27z M71.6,20.4L71.6,20.4c-0.4-0.4-1.2-0.9-2.1-0.9c-1.9,0-3.7,1.7-3.7,3.8s1.8,3.8,3.7,3.8c0.9,0,1.6-0.4,2-0.9h0.1
		v0.6c0,1.5-0.8,2.2-2,2.2c-1,0-1.7-0.7-1.9-1.4l-1.5,0.6c0.4,1,1.5,2.3,3.4,2.3c2,0,3.6-1.2,3.6-4v-6.9h-1.6V20.4z M69.7,25.7
		c-1.2,0-2.1-1-2.1-2.3s1-2.3,2.1-2.3s2,1,2,2.3C71.7,24.8,70.8,25.7,69.7,25.7z M91.6,15.7h-4V27h1.7v-4.3h2.3
		c1.9,0,3.7-1.3,3.7-3.5S93.5,15.7,91.6,15.7z M91.7,21.2h-2.4v-3.9h2.4c1.3,0,2,1,2,1.9C93.6,20.1,92.9,21.2,91.7,21.2z M102,19.6
		c-1.2,0-2.5,0.5-3,1.7l1.5,0.6c0.3-0.6,0.9-0.8,1.5-0.8c0.9,0,1.8,0.5,1.8,1.4v0.1c-0.3-0.2-1-0.4-1.8-0.4c-1.6,0-3.2,0.9-3.2,2.5
		c0,1.5,1.3,2.5,2.8,2.5c1.1,0,1.8-0.5,2.1-1.1h0.1V27h1.6v-4.3C105.5,20.7,104,19.6,102,19.6z M101.8,25.7c-0.6,0-1.3-0.3-1.3-1
		c0-0.9,1-1.2,1.8-1.2c0.7,0,1.1,0.2,1.5,0.4C103.7,25,102.8,25.7,101.8,25.7z M111.4,19.8l-1.9,4.9h-0.1l-2-4.9h-1.8l3,6.8
		l-1.7,3.8h1.8l4.6-10.6C113.3,19.8,111.4,19.8,111.4,19.8z M96.2,27h1.7V15.7h-1.7V27z"/>
	<g>
		
			<linearGradient id="SVGID_1_" gradientUnits="userSpaceOnUse" x1="19.6904" y1="-134.0904" x2="4.5863" y2="-118.9863" gradientTransform="matrix(1 0 0 1 0 142)">
			<stop  offset="0" style="stop-color:#00A0FF"/>
			<stop  offset="6.574450e-03" style="stop-color:#00A1FF"/>
			<stop  offset="0.2601" style="stop-color:#00BEFF"/>
			<stop  offset="0.5122" style="stop-color:#00D2FF"/>
			<stop  offset="0.7604" style="stop-color:#00DFFF"/>
			<stop  offset="1" style="stop-color:#00E3FF"/>
		</linearGradient>
		<path style="fill:url(#SVGID_1_);" d="M9.4,6.8C9.1,7.1,9,7.5,9,8v20c0,0.6,0.2,1,0.4,1.3l0.1,0.1l11.2-11.1V18v-0.1L9.4,6.8
			L9.4,6.8z"/>
		
			<linearGradient id="SVGID_2_" gradientUnits="userSpaceOnUse" x1="30.4507" y1="-123.95" x2="8.6736" y2="-123.95" gradientTransform="matrix(1 0 0 1 0 142)">
			<stop  offset="0" style="stop-color:#FFE000"/>
			<stop  offset="0.4087" style="stop-color:#FFBD00"/>
			<stop  offset="0.7754" style="stop-color:#FFA500"/>
			<stop  offset="1" style="stop-color:#FF9C00"/>
		</linearGradient>
		<path style="fill:url(#SVGID_2_);" d="M24.3,21.9l-3.7-3.7V18v-0.1l3.7-3.7h0.1l4.4,2.5c1.3,0.7,1.3,1.9,0,2.6L24.3,21.9
			L24.3,21.9z"/>
		
			<linearGradient id="SVGID_3_" gradientUnits="userSpaceOnUse" x1="22.3388" y1="-121.9388" x2="1.8564" y2="-101.4565" gradientTransform="matrix(1 0 0 1 0 142)">
			<stop  offset="0" style="stop-color:#FF3A44"/>
			<stop  offset="1" style="stop-color:#C31162"/>
		</linearGradient>
		<path style="fill:url(#SVGID_3_);" d="M24.4,21.8L20.6,18L9.4,29.2c0.4,0.4,1.1,0.5,1.9,0.1L24.4,21.8"/>
		
			<linearGradient id="SVGID_4_" gradientUnits="userSpaceOnUse" x1="6.5631" y1="-141.837" x2="15.7093" y2="-132.6907" gradientTransform="matrix(1 0 0 1 0 142)">
			<stop  offset="0" style="stop-color:#32A071"/>
			<stop  offset="6.850000e-02" style="stop-color:#2DA771"/>
			<stop  offset="0.4762" style="stop-color:#15CF74"/>
			<stop  offset="0.8009" style="stop-color:#06E775"/>
			<stop  offset="1" style="stop-color:#00F076"/>
		</linearGradient>
		<path style="fill:url(#SVGID_4_);" d="M24.4,14.2L11.3,6.7c-0.8-0.4-1.5-0.4-1.9,0.1L20.6,18L24.4,14.2z"/>
		<g>
			<path style="opacity:0.2;enable-background:new    ;" d="M24.3,21.7l-13.1,7.4c-0.7,0.4-1.4,0.4-1.8,0l0,0l-0.1,0.1l0,0l0.1,0.1
				l0,0c0.4,0.4,1.1,0.4,1.8,0L24.3,21.7L24.3,21.7z"/>
			<path style="opacity:0.12;enable-background:new    ;" d="M9.4,29.1C9.1,28.8,9,28.4,9,27.8V28c0,0.6,0.2,1,0.4,1.3V29.1
				L9.4,29.1z"/>
		</g>
		<path style="opacity:0.12;enable-background:new    ;" d="M28.8,19.2l-4.5,2.5l0.1,0.1l4.4-2.5c0.6-0.4,0.9-0.8,0.9-1.3l0,0
			C29.7,18.4,29.4,18.8,28.8,19.2z"/>
		<path style="opacity:0.25;fill:#FFFFFF;enable-background:new    ;" d="M11.3,6.9l17.6,10c0.6,0.3,0.9,0.7,0.9,1.2l0,0
			c0-0.5-0.3-0.9-0.9-1.3L11.3,6.9C10,6,9,6.6,9,8v0.1C9,6.7,10,6.1,11.3,6.9z"/>
	</g>
</g>
<g>
	<path style="fill:#FFFFFF;stroke:#FFFFFF;stroke-width:0.18;stroke-miterlimit:10;" d="M37.9,12.8h-0.7V11h0.5
		c0.5-0.4,0.7-1.1,0.7-2.1V6.3H42V11h0.6v1.8H42v-1.1h-4.1V12.8z M39.1,9c0,0.9-0.2,1.5-0.5,2.1h2.7V7h-2.2V9z"/>
	<path style="fill:#FFFFFF;stroke:#FFFFFF;stroke-width:0.18;stroke-miterlimit:10;" d="M48.1,11c-0.5,0.5-1.2,0.8-2,0.8
		s-1.4-0.3-2-0.8c-0.5-0.5-0.8-1.2-0.8-2s0.3-1.5,0.8-2s1.2-0.8,2-0.8s1.4,0.3,2,0.8c0.5,0.5,0.8,1.2,0.8,2
		C48.9,9.8,48.6,10.5,48.1,11z M44.6,10.6c0.4,0.4,0.9,0.6,1.5,0.6s1.1-0.2,1.5-0.6c0.4-0.4,0.6-0.9,0.6-1.5S48,7.9,47.6,7.5
		s-0.9-0.6-1.5-0.6S45,7.1,44.6,7.5C44.2,7.9,44,8.4,44,9S44.2,10.1,44.6,10.6z"/>
	<path style="fill:#FFFFFF;stroke:#FFFFFF;stroke-width:0.18;stroke-miterlimit:10;" d="M52.4,11.8c-0.8,0-1.5-0.3-2-0.8
		s-0.8-1.2-0.8-2s0.3-1.5,0.8-2s1.2-0.8,2-0.8s1.5,0.3,2,0.9l-0.5,0.5c-0.4-0.5-0.9-0.7-1.5-0.7s-1.1,0.2-1.5,0.6s-0.6,0.9-0.6,1.6
		c0,0.6,0.2,1.2,0.6,1.6c0.4,0.4,0.9,0.6,1.5,0.6s1.2-0.3,1.7-0.8l0.5,0.5c-0.2,0.3-0.6,0.5-0.9,0.7C53.2,11.7,52.8,11.8,52.4,11.8z
		"/>
	<path style="fill:#FFFFFF;stroke:#FFFFFF;stroke-width:0.18;stroke-miterlimit:10;" d="M57.3,11.7h-0.7V7h-1.5V6.3h3.7V7h-1.5V11.7
		z"/>
	<path style="fill:#FFFFFF;stroke:#FFFFFF;stroke-width:0.18;stroke-miterlimit:10;" d="M63.6,6.3l-2,4.6c-0.3,0.6-0.7,1-1.3,1
		c-0.2,0-0.3,0-0.5-0.1l0.2-0.6c0.1,0.1,0.2,0.1,0.4,0.1s0.3,0,0.4-0.1c0.1-0.1,0.2-0.2,0.2-0.3l0.2-0.4l-1.8-4h0.8l1.3,3.1l0,0
		l1.3-3.1h0.8V6.3z"/>
	<path style="fill:#FFFFFF;stroke:#FFFFFF;stroke-width:0.18;stroke-miterlimit:10;" d="M64.4,11.7V6.3h3.9v5.4h-0.7V7h-2.5v4.7
		H64.4z"/>
	<path style="fill:#FFFFFF;stroke:#FFFFFF;stroke-width:0.18;stroke-miterlimit:10;" d="M69.5,11.7V6.3h0.7v2.3h2.7V6.3h0.7v5.4
		h-0.7V9.3h-2.7v2.4C70.2,11.7,69.5,11.7,69.5,11.7z"/>
	<path style="fill:#FFFFFF;stroke:#FFFFFF;stroke-width:0.18;stroke-miterlimit:10;" d="M79.3,11c-0.5,0.5-1.2,0.8-2,0.8
		s-1.4-0.3-2-0.8c-0.5-0.5-0.8-1.2-0.8-2s0.3-1.5,0.8-2s1.2-0.8,2-0.8s1.4,0.3,2,0.8C79.8,7.5,80,8.2,80,9S79.8,10.5,79.3,11z
		 M75.8,10.6c0.4,0.4,0.9,0.6,1.5,0.6s1.1-0.2,1.5-0.6c0.4-0.4,0.6-0.9,0.6-1.5S79.2,8,78.8,7.6C78.4,7.2,77.9,7,77.3,7
		s-1.1,0.2-1.5,0.6c-0.4,0.4-0.6,0.9-0.6,1.5S75.4,10.1,75.8,10.6z"/>
	<path style="fill:#FFFFFF;stroke:#FFFFFF;stroke-width:0.18;stroke-miterlimit:10;" d="M82.9,11.7V6.3h2c0.4,0,0.8,0.1,1.1,0.4
		c0.3,0.3,0.5,0.6,0.5,1.1c0,0.3-0.1,0.5-0.2,0.7S86,8.8,85.8,8.9l0,0c0.3,0.1,0.5,0.2,0.7,0.5c0.2,0.2,0.3,0.5,0.3,0.8
		c0,0.4-0.2,0.8-0.5,1.1s-0.7,0.4-1.2,0.4H82.9z M83.6,8.6h1.3c0.3,0,0.5-0.1,0.6-0.3c0.2-0.2,0.2-0.4,0.2-0.6s-0.1-0.4-0.2-0.6
		C85.3,7,85.1,7,84.9,7h-1.3V8.6z M83.6,11H85c0.3,0,0.5-0.1,0.6-0.3c0.2-0.2,0.2-0.4,0.2-0.6c0-0.2-0.1-0.4-0.3-0.6
		c-0.2-0.2-0.4-0.3-0.7-0.3h-1.4V11H83.6z"/>
</g>
</svg>
