<?xml version="1.0" encoding="utf-8"?>
<!-- Generator: Adobe Illustrator 22.1.0, SVG Export Plug-In . SVG Version: 6.00 Build 0)  -->
<svg version="1.1" id="Слой_1" xmlns="http://www.w3.org/2000/svg" xmlns:xlink="http://www.w3.org/1999/xlink" x="0px" y="0px"
	 width="45.6px" height="25.5px" viewBox="0 0 45.6 25.5" style="enable-background:new 0 0 45.6 25.5;" xml:space="preserve">
<g>
	<path style="fill:#FFEA33;" d="M36.6,2.3c0.5,0.5,0.2,1.5,0.4,2.1c0.3,0.6,1.2,1.1,1.2,1.8c0,0.7-0.9,1.2-1.2,1.8
		c-0.2,0.6,0,1.6-0.4,2.1c-0.5,0.5-1.5,0.2-2.1,0.4c-0.6,0.3-1.1,1.2-1.8,1.2c-0.7,0-1.2-0.9-1.8-1.2c-0.6-0.2-1.6,0-2.1-0.4
		c-0.5-0.5-0.2-1.5-0.4-2.1c-0.3-0.6-1.2-1.1-1.2-1.8c0-0.7,0.9-1.2,1.2-1.8c0.2-0.6,0-1.6,0.4-2.1c0.5-0.5,1.5-0.2,2.1-0.4
		c0.6-0.3,1.1-1.2,1.8-1.2c0.7,0,1.2,0.9,1.8,1.2C35.1,2.1,36.1,1.8,36.6,2.3z"/>
	<path style="fill:#FFB792;" d="M36.6,2.3c0.5,0.5,0.2,1.5,0.4,2.1c0.3,0.6,1.2,1.1,1.2,1.8c0,0.7-0.9,1.2-1.2,1.8
		c-0.2,0.6,0,1.6-0.4,2.1c-0.5,0.5-1.5,0.2-2.1,0.4c-0.6,0.3-1.1,1.2-1.8,1.2c-0.7,0-1.2-0.9-1.8-1.2c-0.6-0.2-1.6,0-2.1-0.4
		c-0.5-0.5-0.2-1.5-0.4-2.1c-0.3-0.6-1.2-1.1-1.2-1.8c0-0.7,0.9-1.2,1.2-1.8c0.2-0.6,0-1.6,0.4-2.1c0.5-0.5,1.5-0.2,2.1-0.4
		c0.6-0.3,1.1-1.2,1.8-1.2c0.7,0,1.2,0.9,1.8,1.2C35.1,2.1,36.1,1.8,36.6,2.3z"/>
	<circle style="fill:#F9D9CA;" cx="32.7" cy="6.2" r="3.1"/>
	<path style="fill:#FFB792;" d="M33.9,6.2c0,0.6-0.5,1.1-1.1,1.1c-0.6,0-1.1-0.5-1.1-1.1c0-0.6,0.5-1.1,1.1-1.1
		C33.4,5,33.9,5.5,33.9,6.2z"/>
	<path style="fill:#FFF4BD;" d="M25.6,18.1c-2.4,0-4.4-1.9-4.4-4.4v-9c0-2.4,1.9-4.4,4.4-4.4l0,0c2.4,0,4.4,1.9,4.4,4.4l0,9
		C29.9,16.2,28,18.1,25.6,18.1L25.6,18.1z"/>
	<path style="fill:#FFE783;" d="M23,4.8c0-1.4,1.2-2.6,2.6-2.6c1.4,0,2.6,1.2,2.6,2.6v9c0,1.4-1.2,2.6-2.6,2.6
		c-1.4,0-2.6-1.2-2.6-2.6L23,4.8L23,4.8z"/>
	<path style="fill:#FFF4BD;" d="M24.7,4.8c0-0.5,0.4-0.9,0.9-0.9s0.9,0.4,0.9,0.9v9c0,0.5-0.4,0.9-0.9,0.9s-0.9-0.4-0.9-0.9V4.8z"/>
	<path style="fill:#B0CE6F;" d="M17.9,2.3c0,1-0.8,1.8-1.8,1.8l0,0c-1,0-1.8-0.8-1.8-1.8l0,0c0-1,0.8-1.8,1.8-1.8l0,0
		C17.1,0.5,17.9,1.3,17.9,2.3L17.9,2.3z"/>
	<path style="fill:#FFF4BD;" d="M16.5,8.5V5.9c0-2.4-1.9-4.4-4.4-4.4c-2.4,0-4.4,1.9-4.4,4.4v2.6H16.5z"/>
	<path style="fill:#FFE783;" d="M14.7,8.5V5.9c0-1.4-1.2-2.6-2.6-2.6c-1.4,0-2.6,1.2-2.6,2.6v2.6H14.7z"/>
	<g>
		<path style="fill:#FFF4BD;" d="M13,8.5V5.9C13,5.4,12.6,5,12.1,5c-0.5,0-0.9,0.4-0.9,0.9v2.6H13z"/>
		<path style="fill:#FFF4BD;" d="M19.1,19.8c-2.4,0-4.4-1.9-4.4-4.4v-9c0-2.4,1.9-4.4,4.4-4.4l0,0c2.4,0,4.4,1.9,4.4,4.4v9
			C23.4,17.9,21.5,19.8,19.1,19.8L19.1,19.8z"/>
	</g>
	<path style="fill:#FFE783;" d="M16.5,6.5c0-1.4,1.2-2.6,2.6-2.6c1.4,0,2.6,1.2,2.6,2.6v9c0,1.4-1.2,2.6-2.6,2.6
		c-1.4,0-2.6-1.2-2.6-2.6V6.5z"/>
	<path style="fill:#FF8150;" d="M11,6.4c0,1-0.8,1.8-1.8,1.8l0,0c-1,0-1.8-0.8-1.8-1.8l0,0c0-1,0.8-1.8,1.8-1.8l0,0
		C10.1,4.6,11,5.4,11,6.4L11,6.4z"/>
</g>
<g>
	<path style="fill:#E9E9E9;" d="M35.9,25.5H9.7c-2.3,0-4.1-1.9-4.1-4.2v-10c0-0.7-0.2-1.4-0.5-2L3.7,7.2C3.5,6.8,3.8,6.3,4.3,6.3
		h37.1c0.5,0,0.7,0.5,0.5,0.9l-1.3,2.2c-0.4,0.6-0.5,1.3-0.5,2v10C40,23.6,38.1,25.5,35.9,25.5L35.9,25.5z M35.9,25.5"/>
	<path style="fill:#E9E9E9;" d="M43.2,15.9h-4v-4.8h4c1.3,0,2.4,1.1,2.4,2.4C45.6,14.8,44.5,15.9,43.2,15.9L43.2,15.9z M40.8,14.3
		h2.4c0.4,0,0.8-0.4,0.8-0.8c0-0.4-0.4-0.8-0.8-0.8h-2.4V14.3z M40.8,14.3"/>
	<path style="fill:#E9E9E9;" d="M6.4,15.9h-4c-1.3,0-2.4-1.1-2.4-2.4c0-1.3,1.1-2.4,2.4-2.4h4V15.9z M2.4,12.7
		c-0.4,0-0.8,0.4-0.8,0.8c0,0.4,0.4,0.8,0.8,0.8h2.4v-1.6H2.4z M2.4,12.7"/>
	<path style="fill:#FFFFFF;" d="M16.8,22.3h-8c-0.4,0-0.8-0.4-0.8-0.8c0-0.4,0.4-0.8,0.8-0.8h8c0.4,0,0.8,0.4,0.8,0.8
		C17.6,21.9,17.2,22.3,16.8,22.3L16.8,22.3z M16.8,22.3"/>
	<path style="fill:#FFFFFF;" d="M14.4,19.1H8.8c-0.4,0-0.8-0.4-0.8-0.8c0-0.4,0.4-0.8,0.8-0.8h5.6c0.4,0,0.8,0.4,0.8,0.8
		C15.2,18.7,14.8,19.1,14.4,19.1L14.4,19.1z M14.4,19.1"/>
	<path style="fill:#FFFFFF;" d="M12.8,15.9h-4c-0.4,0-0.8-0.4-0.8-0.8c0-0.4,0.4-0.8,0.8-0.8h4c0.4,0,0.8,0.4,0.8,0.8
		C13.6,15.5,13.2,15.9,12.8,15.9L12.8,15.9z M12.8,15.9"/>
</g>
</svg>
