<?xml version="1.0" encoding="utf-8"?>
<!-- Generator: Adobe Illustrator 22.1.0, SVG Export Plug-In . SVG Version: 6.00 Build 0)  -->
<svg version="1.1" id="Слой_1" xmlns="http://www.w3.org/2000/svg" xmlns:xlink="http://www.w3.org/1999/xlink" x="0px" y="0px"
	 width="22px" height="22px" viewBox="0 0 22 22" style="enable-background:new 0 0 22 22;" xml:space="preserve">
<g>
	<path d="M16,0H6C2.7,0,0,2.7,0,6V16c0,3.3,2.7,6,6,6H16c3.3,0,6-2.7,6-6V6C22,2.7,19.3,0,16,0L16,0z M20.7,16
		c0,2.6-2.1,4.7-4.7,4.7H6c-2.6,0-4.7-2.1-4.7-4.7V6c0-2.6,2.1-4.7,4.7-4.7H16c2.6,0,4.7,2.1,4.7,4.7V16z M20.7,16"/>
	<path d="M11,5c-3.3,0-6,2.7-6,6c0,3.3,2.7,6,6,6c3.3,0,6-2.7,6-6C17,7.7,14.3,5,11,5L11,5z M11,15.7c-2.6,0-4.7-2.1-4.7-4.7
		c0-2.6,2.1-4.7,4.7-4.7c2.6,0,4.7,2.1,4.7,4.7C15.7,13.6,13.6,15.7,11,15.7L11,15.7z M11,15.7"/>
	<path d="M17.2,2.8c-1,0-1.8,0.8-1.8,1.8c0,1,0.8,1.8,1.8,1.8c1,0,1.8-0.8,1.8-1.8C18.9,3.6,18.1,2.8,17.2,2.8L17.2,2.8z M17.2,5.1
		c-0.3,0-0.5-0.2-0.5-0.5c0-0.3,0.2-0.5,0.5-0.5c0.3,0,0.5,0.2,0.5,0.5C17.6,4.9,17.4,5.1,17.2,5.1L17.2,5.1z M17.2,5.1"/>
</g>
</svg>
