<?xml version="1.0" encoding="utf-8"?>
<!-- Generator: Adobe Illustrator 22.1.0, SVG Export Plug-In . SVG Version: 6.00 Build 0)  -->
<svg version="1.1" id="Слой_1" xmlns="http://www.w3.org/2000/svg" xmlns:xlink="http://www.w3.org/1999/xlink" x="0px" y="0px"
	 width="37.8px" height="22px" viewBox="0 0 37.8 22" style="enable-background:new 0 0 37.8 22;" xml:space="preserve">
<g>
	<g>
		<g>
			<path d="M19.4,22c-2.7,0-5-0.6-7-1.7c-2-1.1-3.6-2.7-5.3-5C4.7,12,2.6,8.3,0.2,3.1c-0.3-0.7-0.3-1.3,0-1.7C0.5,1,1,0.7,1.8,0.7
				c1.7,0,3.4,0,5.2,0c0.9,0,1.7,0.5,2.1,1.5c1,2.4,2.1,4.5,3.5,6.4c0.3,0.5,0.7,1,1.2,1.3c0.1,0.1,0.2,0.1,0.2,0.1
				c0,0,0.1-0.1,0.1-0.2c0.1-0.3,0.2-0.7,0.3-1.2c0.2-1.8,0.1-3.3-0.1-4.6c-0.1-0.7-0.5-1.1-1.2-1.3c-0.2,0-0.7-0.1-0.9-0.6
				c-0.2-0.5,0.2-0.9,0.3-1c0.5-0.6,1.1-1,2.1-1h6.1l0.1,0c1.5,0.3,1.7,1.2,1.8,2.1l0,0.1l0,6.7l0,0c0,0.3,0.2,0.9,0.4,1
				c0.1,0,0.2-0.1,0.4-0.3l0.1-0.1C25,8,26,6.1,26.8,4.5c0.4-0.8,0.7-1.5,1.1-2.5c0.4-0.9,1-1.4,2-1.4l5.8,0c0.2,0,0.4,0,0.6,0
				c0.4,0.1,1.1,0.2,1.4,0.8c0.3,0.5,0.2,1.2,0.1,1.6c-0.5,1.5-1.4,2.8-2.3,4l-0.1,0.1c-0.5,0.6-0.9,1.3-1.4,1.9
				c-0.5,0.7-1.1,1.4-1.6,2.1c-0.7,0.9-0.7,1.2,0.2,2l0,0c0.3,0.3,0.6,0.6,1,0.9c0.9,0.9,1.8,1.7,2.7,2.7c0.5,0.5,1,1.2,1.4,2
				c0.4,0.7,0.4,1.5,0,2.2c-0.3,0.5-0.8,0.8-1.4,0.9l0,0l-5.3,0c-1.4,0.1-2.8-0.4-3.9-1.6c-0.5-0.5-1-1.1-1.5-1.6
				c-0.2-0.2-0.4-0.5-0.7-0.7c-0.2-0.2-0.5-0.5-0.8-0.7c-0.2-0.1-0.4-0.2-0.5-0.2c-0.1,0-0.2,0.1-0.3,0.3c-0.3,0.6-0.4,1.3-0.5,2.2
				c-0.1,1.6-0.7,2.2-2.3,2.3C20,22,19.7,22,19.4,22z M1.3,2.1c0,0,0,0.2,0.1,0.4c2.3,5.1,4.3,8.7,6.7,11.9c1.6,2.1,3.1,3.6,4.9,4.6
				c2.1,1.2,4.4,1.7,7.2,1.5c0.9,0,1-0.1,1.1-1c0-0.9,0.2-1.9,0.6-2.8c0.4-0.7,0.8-0.9,1.2-1c0.3-0.1,0.9-0.1,1.5,0.3
				c0.4,0.3,0.8,0.6,1.1,1c0.2,0.3,0.5,0.5,0.7,0.8c0.5,0.5,0.9,1.1,1.4,1.6c0.9,0.9,1.8,1.3,2.8,1.2l0.1,0l5.3,0
				c0.1,0,0.2-0.1,0.3-0.2c0.1-0.2,0.1-0.5,0-0.9c-0.3-0.6-0.8-1.2-1.2-1.7c-0.8-0.9-1.7-1.8-2.5-2.6c-0.3-0.3-0.7-0.6-1-0.9
				c-1.3-1.3-1.4-2.3-0.4-3.8c0.5-0.7,1.1-1.4,1.6-2.1c0.5-0.6,0.9-1.2,1.4-1.8l0.1-0.1c0.9-1.2,1.7-2.3,2.1-3.7
				c0.1-0.4,0.1-0.5,0.1-0.5l0,0c0,0-0.1-0.1-0.5-0.2c-0.1,0-0.3,0-0.4,0l-5.8,0c-0.4,0-0.6,0.1-0.7,0.5c-0.4,1-0.7,1.8-1.1,2.6
				c-0.8,1.7-1.9,3.7-3.5,5.4l-0.1,0.1c-0.3,0.3-0.9,1-1.8,0.7l0,0c-1-0.4-1.3-1.7-1.3-2.3l0-6.6c-0.1-0.7-0.2-0.8-0.7-0.9h-5.9
				c-0.3,0-0.6,0.1-0.7,0.2c0.9,0.4,1.5,1.1,1.7,2.2c0.2,1.5,0.3,3.1,0.1,5c-0.1,0.6-0.2,1.1-0.4,1.6c-0.2,0.5-0.6,0.9-1,1
				c-0.4,0.1-0.9,0-1.4-0.3c-0.7-0.5-1.1-1.1-1.5-1.6c-1.4-2-2.6-4.2-3.6-6.7C7.6,2.2,7.3,2.1,7,2.1c-1.8,0-3.5,0-5.2,0
				C1.5,2.1,1.4,2.1,1.3,2.1z"/>
		</g>
	</g>
</g>
</svg>
