<?xml version="1.0" encoding="utf-8"?>
<!-- Generator: Adobe Illustrator 22.1.0, SVG Export Plug-In . SVG Version: 6.00 Build 0)  -->
<svg version="1.1" id="Слой_1" xmlns="http://www.w3.org/2000/svg" xmlns:xlink="http://www.w3.org/1999/xlink" x="0px" y="0px"
	 width="44.8px" height="40.8px" viewBox="0 0 44.8 40.8" style="enable-background:new 0 0 44.8 40.8;" xml:space="preserve">
<g>
	<path style="fill:#D8CBAB;" d="M44.7,34.7l-6.2-15.9c0-0.2-0.2-0.3-0.4-0.3H6.7c-0.2,0-0.4,0.1-0.4,0.3L0.1,34.7
		c-0.1,0.3,0.1,0.5,0.4,0.5h17.5c0.2,0,0.4,0.2,0.4,0.4c0.4,1.6,2,2.8,3.9,2.8c1.9,0,3.5-1.2,3.9-2.8c0-0.2,0.2-0.4,0.4-0.4h17.5
		C44.5,35.2,44.7,34.9,44.7,34.7L44.7,34.7z M44.7,34.7"/>
	<path style="fill:#FAF5E5;" d="M26.7,35.2c-0.2,0-0.4,0.2-0.4,0.4c-0.4,1.6-2,2.8-3.9,2.8c-1.9,0-3.5-1.2-3.9-2.8
		c-0.1-0.2-0.2-0.4-0.4-0.4H0.2c-0.1,0-0.2,0.1-0.2,0.2v4.9c0,0.3,0.2,0.5,0.5,0.5h43.9c0.3,0,0.5-0.2,0.5-0.5v-5
		c0-0.1,0-0.1-0.1-0.1H26.7z M26.7,35.2"/>
	<path style="fill:#FAF8D2;" d="M7.6,35.2h10.5c0.2,0,0.4,0.2,0.4,0.4c0.4,1.6,2,2.8,3.9,2.8c1.9,0,3.5-1.2,3.9-2.8
		c0.1-0.2,0.2-0.4,0.4-0.4h10.5c2.7-1.7,4.4-4.9,4.4-7.2c0-5.3-8.6-9.6-19.2-9.6c-10.6,0-19.2,4.3-19.2,9.6
		C3.2,30.3,4.8,33.5,7.6,35.2L7.6,35.2z M7.6,35.2"/>
	<path style="fill:#FAF5E5;" d="M42.4,0h-40v2.4h17.7C20,2.5,20,2.7,20,2.8c0,1.1,1.3,2,2.8,2s2.8-0.9,2.8-2c0-0.1,0-0.3-0.1-0.4
		h16.9V0z M42.4,0"/>
	<path style="fill:#E8DFC5;" d="M25.5,2.4c0,0.1,0.1,0.3,0.1,0.4c0,1.1-1.3,2-2.8,2S20,3.9,20,2.8c0-0.1,0-0.3,0.1-0.4H3.2l3.6,16
		h31.7l3.9-16H25.5z M25.5,2.4"/>
	<path style="fill:#CD6E61;" d="M12.8,30.4c0,0.9-1.1,1.6-2.4,1.6C9.1,32,8,31.3,8,30.4c0-0.9,1.1-1.6,2.4-1.6
		C11.7,28.8,12.8,29.5,12.8,30.4L12.8,30.4z M12.8,30.4"/>
	<path style="fill:#773F3A;" d="M15.2,24c0,0.9-1.1,1.6-2.4,1.6c-1.3,0-2.4-0.7-2.4-1.6s1.1-1.6,2.4-1.6
		C14.1,22.4,15.2,23.1,15.2,24L15.2,24z M15.2,24"/>
	<path style="fill:#CD6E61;" d="M23.2,22.4c0,0.9-1.1,1.6-2.4,1.6c-1.3,0-2.4-0.7-2.4-1.6c0-0.9,1.1-1.6,2.4-1.6
		C22.1,20.8,23.2,21.5,23.2,22.4L23.2,22.4z M23.2,22.4"/>
	<path style="fill:#773F3A;" d="M31.2,23.2c0,0.9-1.1,1.6-2.4,1.6c-1.3,0-2.4-0.7-2.4-1.6s1.1-1.6,2.4-1.6
		C30.1,21.6,31.2,22.3,31.2,23.2L31.2,23.2z M31.2,23.2"/>
	<path style="fill:#CD6E61;" d="M38.4,26.4c0,0.9-1.1,1.6-2.4,1.6c-1.3,0-2.4-0.7-2.4-1.6c0-0.9,1.1-1.6,2.4-1.6
		C37.3,24.8,38.4,25.5,38.4,26.4L38.4,26.4z M38.4,26.4"/>
	<path style="fill:#CD6E61;" d="M33.6,31.2c0,0.9-1.1,1.6-2.4,1.6c-1.3,0-2.4-0.7-2.4-1.6s1.1-1.6,2.4-1.6
		C32.5,29.6,33.6,30.3,33.6,31.2L33.6,31.2z M33.6,31.2"/>
	<path style="fill:#773F3A;" d="M24.8,32.8c0,0.9-1.1,1.6-2.4,1.6c-1.3,0-2.4-0.7-2.4-1.6s1.1-1.6,2.4-1.6
		C23.7,31.2,24.8,31.9,24.8,32.8L24.8,32.8z M24.8,32.8"/>
	<path style="fill:#88C057;" d="M14.6,32.8c-0.1,0-0.1,0-0.2,0c-0.4-0.1-0.7-0.5-0.6-0.9c0.1-0.6,0.6-1,1.2-1
		c0.2-0.4,0.6-0.7,1.1-0.7c0.2-0.3,0.5-0.4,0.8-0.3c0.4,0.1,0.7,0.5,0.6,0.9c-0.1,0.6-0.6,1-1.2,1c-0.2,0.4-0.6,0.7-1.1,0.7
		C15.2,32.7,14.9,32.8,14.6,32.8L14.6,32.8z M14.6,32.8"/>
	<path style="fill:#88C057;" d="M7.2,28.8c-0.1,0-0.1,0-0.2,0c-0.4-0.1-0.7-0.5-0.6-0.9c0.1-0.6,0.6-1,1.2-1
		c0.2-0.4,0.6-0.7,1.1-0.7c0.2-0.3,0.5-0.4,0.8-0.3c0.4,0.1,0.7,0.5,0.6,0.9c-0.1,0.6-0.6,1-1.2,1c-0.2,0.4-0.6,0.7-1.1,0.7
		C7.7,28.7,7.5,28.8,7.2,28.8L7.2,28.8z M7.2,28.8"/>
	<path style="fill:#88C057;" d="M26.1,30.1c-0.2,0-0.4-0.1-0.6-0.2c-0.2-0.1-0.4-0.3-0.5-0.5c-0.2,0-0.4,0-0.6-0.1
		c-0.2-0.1-0.4-0.3-0.5-0.5c-0.3,0-0.6-0.2-0.7-0.6c-0.1-0.4,0.1-0.9,0.5-1c0.3-0.1,0.7-0.1,1,0.1c0.2,0.1,0.4,0.3,0.5,0.5
		c0.5,0,0.9,0.2,1.1,0.6c0.3,0,0.6,0.2,0.7,0.6c0.1,0.4-0.1,0.9-0.5,1C26.3,30,26.2,30.1,26.1,30.1L26.1,30.1z M26.4,28.7L26.4,28.7
		L26.4,28.7L26.4,28.7z M24.8,27.9C24.8,27.9,24.8,27.9,24.8,27.9C24.8,27.9,24.8,27.9,24.8,27.9L24.8,27.9z M24.8,27.9"/>
	<path style="fill:#88C057;" d="M23.2,24c-0.1,0-0.3,0-0.4-0.1c-0.4-0.2-0.5-0.7-0.3-1.1c0.3-0.5,0.9-0.8,1.4-0.6
		c0.3-0.3,0.8-0.5,1.3-0.4c0.2-0.2,0.6-0.2,0.9-0.1c0.4,0.2,0.5,0.7,0.3,1.1c-0.3,0.5-0.9,0.8-1.4,0.6c-0.2,0.2-0.3,0.3-0.6,0.4
		c-0.2,0.1-0.5,0.1-0.7,0C23.6,23.9,23.4,24,23.2,24L23.2,24z M23.7,22.5L23.7,22.5z M24.2,22.3C24.2,22.3,24.2,22.3,24.2,22.3
		S24.2,22.3,24.2,22.3L24.2,22.3z M25.4,21.9C25.4,21.9,25.4,21.9,25.4,21.9C25.4,21.9,25.4,21.9,25.4,21.9L25.4,21.9z M25.4,21.9"
		/>
	<path style="fill:#88C057;" d="M33.6,29.9c-0.2,0-0.4,0-0.5-0.1c-0.3,0.1-0.6,0.1-0.9-0.1c-0.3-0.3-0.4-0.8-0.1-1.1
		c0.2-0.3,0.5-0.4,0.8-0.5c0.2,0,0.5,0,0.7,0.1c0.2-0.1,0.4-0.2,0.6-0.3c0.2,0,0.5,0,0.7,0.1c0.3-0.2,0.6-0.1,0.9,0.1
		c0.3,0.3,0.4,0.8,0.1,1.1c-0.4,0.5-1,0.6-1.5,0.4c-0.2,0.1-0.4,0.2-0.6,0.3C33.7,29.9,33.6,29.9,33.6,29.9L33.6,29.9z M34.6,29.5
		L34.6,29.5z M33.8,28.4L33.8,28.4L33.8,28.4z M33.8,28.4"/>
	<path style="fill:#88C057;" d="M19.1,27.7c-0.2,0-0.4-0.1-0.6-0.2c-0.2-0.1-0.4-0.3-0.5-0.5c-0.2,0-0.4,0-0.6-0.1
		c-0.2-0.1-0.4-0.3-0.5-0.5c-0.3,0-0.6-0.3-0.7-0.6c-0.1-0.4,0.1-0.9,0.5-1c0.3-0.1,0.7-0.1,1,0.1c0.2,0.1,0.4,0.3,0.5,0.5
		c0.5,0,0.9,0.2,1.1,0.6c0.3,0,0.6,0.2,0.7,0.6c0.1,0.4-0.1,0.9-0.5,1C19.3,27.6,19.2,27.7,19.1,27.7L19.1,27.7z M19.4,26.3
		L19.4,26.3z M17.8,25.5L17.8,25.5L17.8,25.5L17.8,25.5z M17.8,25.5"/>
	<path style="fill:#FBD490;" d="M22.4,18.4c-10.6,0-19.2,4.3-19.2,9.6c0,2.3,1.6,5.5,4.4,7.2h2.2c-0.6-0.5-1.2-1-1.7-1.6h0
		c-2-1.4-3.3-3.9-3.3-5.6c0-1.9,1.7-3.9,4.7-5.4c3.4-1.7,8-2.6,12.9-2.6c4.9,0,9.5,0.9,12.9,2.6c3,1.5,4.7,3.5,4.7,5.4
		c0,1.6-1.1,4-3,5.4c0,0,0,0,0,0c-0.3,0.4-0.6,0.8-0.9,1.1c-0.3,0.2-0.6,0.5-0.9,0.7h2.1c2.7-1.7,4.4-4.9,4.4-7.2
		C41.6,22.7,33,18.4,22.4,18.4L22.4,18.4z M22.4,18.4"/>
	<path style="fill:#FFFFFF;" d="M19.2,17c-0.2,0-0.4-0.1-0.6-0.2c-0.7-0.7-1.1-1.6-1.1-2.6c0-1,0.4-1.9,1.1-2.6
		c0.8-0.8,0.8-2.1,0-2.9c-0.3-0.3-0.3-0.8,0-1.1c0.3-0.3,0.8-0.3,1.1,0c1.4,1.4,1.4,3.8,0,5.2c-0.4,0.4-0.6,0.9-0.6,1.5
		c0,0.6,0.2,1.1,0.6,1.5c0.3,0.3,0.3,0.8,0,1.1C19.6,16.9,19.4,17,19.2,17L19.2,17z M19.2,17"/>
	<path style="fill:#FFFFFF;" d="M10.4,17c-0.2,0-0.4-0.1-0.6-0.2c-0.7-0.7-1.1-1.6-1.1-2.6c0-1,0.4-1.9,1.1-2.6
		c0.8-0.8,0.8-2.1,0-2.9c-0.3-0.3-0.3-0.8,0-1.1c0.3-0.3,0.8-0.3,1.1,0c1.4,1.4,1.4,3.8,0,5.2c-0.4,0.4-0.6,0.9-0.6,1.5
		c0,0.6,0.2,1.1,0.6,1.5c0.3,0.3,0.3,0.8,0,1.1C10.9,16.9,10.6,17,10.4,17L10.4,17z M10.4,17"/>
	<path style="fill:#FFFFFF;" d="M15.2,14.6c-0.2,0-0.4-0.1-0.6-0.2c-0.7-0.7-1.1-1.6-1.1-2.6c0-1,0.4-1.9,1.1-2.6
		c0.8-0.8,0.8-2.1,0-2.9c-0.3-0.3-0.3-0.8,0-1.1c0.3-0.3,0.8-0.3,1.1,0c1.4,1.4,1.4,3.8,0,5.2c-0.4,0.4-0.6,0.9-0.6,1.5
		c0,0.6,0.2,1.1,0.6,1.5c0.3,0.3,0.3,0.8,0,1.1C15.6,14.5,15.4,14.6,15.2,14.6L15.2,14.6z M15.2,14.6"/>
</g>
</svg>
