<?xml version="1.0" encoding="utf-8"?>
<!-- Generator: Adobe Illustrator 22.1.0, SVG Export Plug-In . SVG Version: 6.00 Build 0)  -->
<svg version="1.1" id="Слой_1" xmlns="http://www.w3.org/2000/svg" xmlns:xlink="http://www.w3.org/1999/xlink" x="0px" y="0px"
	 width="40.9px" height="46.3px" viewBox="0 0 40.9 46.3" style="enable-background:new 0 0 40.9 46.3;" xml:space="preserve">
<g>
	<g>
		<path style="clip-path:url(#SVGID_2_);fill:#88C057;" d="M31.1,22.1c1.2,0.3,2.6,0.3,4-0.3c2.5-1.1,4.3-3.4,4.3-6.1
			c0.1-3-1.9-5.6-4.5-6.5c-0.2-2.7-2.5-4.9-5.3-4.9c0,0,0,0,0,0c0.1-0.4,0-0.9-0.1-1.3c-0.4-1.3-1.5-2.3-2.8-2.4
			c-1.1-0.1-2.1,0.3-2.8,1c-0.7-0.6-1.5-1-2.5-1c-2.1,0-3.8,1.7-3.8,3.8c0,0,0,0,0,0C15,4.4,13,6.5,13,9.1c0,0.4,0.1,0.8,0.1,1.1
			c-3,0.1-5.4,2.6-5.4,5.6c0,1,0.3,2,0.8,2.8C7.6,19.5,7,20.6,7,21.9c0,1.8,1.2,3.3,2.8,3.9c-0.2,7.4,2.4,11.7,7.5,17.6
			c0.1,0.1,0.2,0.2,0.3,0.3l0.1,0.1c2.1,2.4,6.9,0.6,5.9-2.5C18,25.2,34.9,27.6,34.9,27.6s0.5-4.9-3.9-5.1
			C31,22.4,31,22.2,31.1,22.1C31,22.1,31,22.1,31.1,22.1L31.1,22.1z M31.1,22.1"/>
		<path style="clip-path:url(#SVGID_2_);fill:#659C35;" d="M17.6,43.8L17.6,43.8c-0.2-0.2-0.2-0.3-0.3-0.4
			c-5.1-5.9-7.7-10.2-7.5-17.6C8.1,25.3,7,23.7,7,21.9c0-1.3,0.6-2.4,1.5-3.2c-0.5-0.8-0.8-1.8-0.8-2.8c0-3,2.4-5.5,5.4-5.6
			C13.1,9.9,13,9.5,13,9.1c0-2,1.3-3.8,3-4.5c-0.1-0.4-0.3-0.8-0.5-1.2c-1-2-2.7-3.2-4.3-2.9C10,0.7,9.1,1.8,8.7,3.2
			c-1.1-0.7-2.3-1-3.4-0.6C2.9,3.4,2.2,6.8,3.5,9.9c0,0,0,0,0,0C1,11.1,0.3,14.8,1.9,18c0.2,0.5,0.5,0.9,0.8,1.3
			C-0.1,20.5-0.8,24,1,27.1c0.6,1,1.3,1.8,2.2,2.4c-0.4,1-0.3,2.1,0.3,3.2c0.8,1.5,2.4,2.3,3.9,2.3c2.6,5.2,5.9,7.2,10.7,9.2
			c0.1,0,0.1,0,0.2,0.1C18,44.2,17.8,44,17.6,43.8L17.6,43.8z M17.6,43.8"/>
	</g>
	<path style="fill:#659C35;" d="M19.5,20c0-0.1,0.1-0.2,0.1-0.3c0.6-1.4,1.3-2.7,2-3.7c3.6-0.7,6.3,0.4,6.4,0.4
		c0.1,0,0.2,0.1,0.3,0.1c0.3,0,0.6-0.2,0.7-0.5c0.2-0.4,0-0.9-0.4-1.1c-0.1,0-2.3-1-5.5-0.8c1.6-1.6,2.9-2.4,3.1-2.5
		c1.2-0.6,2.9,0.2,3.4,0.5c0.1,0.1,0.3,0.1,0.4,0.1c0.3,0,0.5-0.1,0.7-0.4c0.2-0.4,0.1-0.9-0.3-1.1c-0.1-0.1-1.9-1.1-3.7-0.9
		c0.2-0.6,0.5-1.2,0.7-1.5c0.3-0.3,0.2-0.9-0.1-1.1c-0.4-0.3-0.9-0.2-1.1,0.1C26,7.5,25,8.9,25,10.5c-1.2,0.7-4.2,2.9-6.3,7.2
		c-0.1,0.2-0.2,0.5-0.3,0.7c-2.2-1.5-1.8-4.1-1.8-4.3c0.1-0.4-0.2-0.8-0.7-0.9c-0.4-0.1-0.8,0.2-0.9,0.7c-0.2,1.4,0.1,4.4,2.8,6
		c-0.6,1.8-1,3.8-1.2,6.3c0,0.1,0,0.2,0,0.2c-0.1,1.7,0,3.6,0.3,5.7c-1-0.6-1.5-1.4-1.5-1.4c-0.2-0.4-0.7-0.5-1.1-0.3
		c-0.4,0.2-0.5,0.7-0.3,1.1c0,0.1,1,1.9,3.2,2.5c0.6,3.2,1.6,6.7,3.3,10.7c0.5,0,1.1-0.2,1.6-0.4c0,0,0,0,0,0
		c-1.7-4.2-2.8-7.8-3.4-11c0,0,0,0,0-0.1c-0.4-2.4-0.6-4.6-0.5-6.6c1.1-1.9,4.4-2,4.4-2c0.4,0,0.8-0.4,0.8-0.8
		c0-0.4-0.4-0.8-0.8-0.8h0c-0.1,0-2.4,0.1-4.2,1.2c0.2-1.6,0.6-3,1-4.2C19.4,20.1,19.5,20,19.5,20L19.5,20z M19.5,20"/>
</g>
<g>
	<path style="fill:#A5A5A5;" d="M20.5,41.9c-0.1-0.1-0.1-0.2-0.1-0.3c0-0.2,0.2-0.4,0.5-0.4l2.5,0.3c0.2,0,0.4,0.2,0.4,0.5
		c0,0.2-0.2,0.4-0.5,0.4L20.8,42C20.7,42,20.6,41.9,20.5,41.9L20.5,41.9z M20.5,41.9"/>
	<path style="fill:#A5A5A5;" d="M21.2,43.6c-0.2-0.2-0.1-0.5,0.1-0.6l1.9-1.5c0.2-0.1,0.5-0.1,0.6,0.1c0.1,0.2,0.1,0.5-0.1,0.6
		l-1.9,1.5C21.6,43.9,21.3,43.8,21.2,43.6L21.2,43.6z M21.2,43.6"/>
	<path style="fill:#A5A5A5;" d="M22.8,44.7c-0.1-0.1-0.1-0.2-0.1-0.3l0.3-2.5c0-0.2,0.2-0.4,0.5-0.4c0.2,0,0.4,0.2,0.4,0.5l-0.3,2.5
		c0,0.2-0.2,0.4-0.5,0.4C23,44.8,22.9,44.8,22.8,44.7L22.8,44.7z M22.8,44.7"/>
	<path style="fill:#A5A5A5;" d="M24.5,44.9C24.5,44.8,24.5,44.8,24.5,44.9L23,42.1c-0.1-0.2,0-0.5,0.2-0.6c0.2-0.1,0.5,0,0.6,0.2
		l1.4,2.7c0.1,0.2,0,0.5-0.2,0.6C24.8,45.1,24.6,45,24.5,44.9L24.5,44.9z M24.5,44.9"/>
	<g>
		<path style="clip-path:url(#SVGID_4_);fill:#A5A5A5;" d="M20.8,40.1c-0.1-0.2-0.1-0.4,0-0.6c0.2-0.2,0.4-0.2,0.6,0l2.3,2
			c0.2,0.2,0.2,0.4,0,0.6c-0.2,0.2-0.4,0.2-0.6,0L20.8,40.1C20.8,40.1,20.8,40.1,20.8,40.1L20.8,40.1z M20.8,40.1"/>
		<path style="clip-path:url(#SVGID_4_);fill:#E9D3EA;" d="M38.1,30.6l2-1.6l-1.8-0.8L37,29.3c-3.4-3.3-8.8-3.6-12.5-0.4
			c-3.6,3.1-4.3,8.5-1.5,12.3c3.1,4.4,9.2,5.2,13.4,1.9C40.1,40.1,40.8,34.6,38.1,30.6L38.1,30.6z M38.1,30.6"/>
	</g>
	<path style="fill:#9777A8;" d="M23,42.2c0,0,0-0.1-0.1-0.1c-1-2.6-0.7-6,0.8-8.6c1.4-2.5,3.7-4.2,6.5-4.7c0.2,0,0.5,0.1,0.5,0.3
		c0,0.2-0.1,0.5-0.3,0.5c-3.2,0.6-5,2.7-5.9,4.3c-1.4,2.4-1.7,5.6-0.8,7.9c0.1,0.2,0,0.5-0.2,0.6C23.3,42.4,23.1,42.3,23,42.2
		L23,42.2z M23,42.2"/>
	<path style="fill:#9777A8;" d="M23,42.2c-0.1-0.1-0.1-0.3,0-0.5c0.1-0.2,0.4-0.3,0.6-0.1c2.1,1.4,5.2,1.8,7.9,1
		c1.8-0.5,4.2-1.8,5.5-4.8c0.1-0.2,0.3-0.3,0.6-0.2c0.2,0.1,0.3,0.4,0.2,0.6c-1.1,2.6-3.3,4.5-6,5.3c-2.9,0.9-6.3,0.4-8.6-1.1
		C23.1,42.3,23,42.2,23,42.2L23,42.2z M23,42.2"/>
	<path style="fill:#9777A8;" d="M23.1,42.4c0-0.1-0.1-0.1-0.1-0.2c-0.5-3.2,4.1-9.6,9.5-11.8c0.2-0.1,0.5,0,0.6,0.2
		c0.1,0.2,0,0.5-0.2,0.6c-5.3,2.2-9.4,8.3-9,10.9c0,0.2-0.1,0.5-0.4,0.5C23.4,42.5,23.2,42.5,23.1,42.4L23.1,42.4z M23.1,42.4"/>
	<path style="fill:#9777A8;" d="M22.9,42c-0.1-0.1-0.1-0.3-0.1-0.4c0.1-0.2,0.3-0.3,0.6-0.2c2.4,0.9,9.3-1.6,12.6-6.4
		c0.1-0.2,0.4-0.2,0.6-0.1c0.2,0.1,0.2,0.4,0.1,0.6c-3.3,4.8-10.6,7.9-13.6,6.7C23,42.1,22.9,42.1,22.9,42L22.9,42z M22.9,42"/>
	<path style="fill:#9777A8;" d="M23.1,42.1c-0.2-0.2-0.1-0.5,0.1-0.6l12.4-10c0.2-0.1,0.5-0.1,0.6,0.1c0.1,0.2,0.1,0.5-0.1,0.6
		l-12.4,10C23.5,42.3,23.2,42.3,23.1,42.1L23.1,42.1z M23.1,42.1"/>
</g>
</svg>
