<?xml version="1.0" encoding="utf-8"?>
<!-- Generator: Adobe Illustrator 22.1.0, SVG Export Plug-In . SVG Version: 6.00 Build 0)  -->
<svg version="1.1" id="Слой_1" xmlns="http://www.w3.org/2000/svg" xmlns:xlink="http://www.w3.org/1999/xlink" x="0px" y="0px"
	 width="191px" height="97px" viewBox="0 0 191 97" style="enable-background:new 0 0 191 97;" xml:space="preserve">
<g>
	<path style="fill-rule:evenodd;clip-rule:evenodd;fill:#ED1C24;" d="M191,48.9c-0.2-5.1-1.6-9-4.1-11.8c-2.1-2.2-4.9-3.5-8-3.7
		c0.2-1.6-0.1-3.2-1.1-4.6c-1.9-2.7-5.4-3.8-11.8-3.8c-0.8,0-1.4,0-1.7,0c-5.6,0.1-10,0.1-14.5,0.1v-4.1c0.7,0.8,1.7,1,2.7,1
		c2.2,0,3.3-2,3.3-4.5c0-2.3-1-4.6-3.3-4.6c-1.7,0-2.4,1-2.6,1.3v-1.1h-2.4v12c-2.3,0-4.7,0-7.4,0c-3.5,0-8-0.1-13.7-0.1
		c-4.9,0-9.9,0-14.2,0c-3.2,0-6,0-8.1,0c-8,0-12.3,1.5-14.2,4.8c-0.9,1.7-1,3.7-0.3,5.4c-1.5,0.5-2.8,1.4-4.1,2.5
		c0,0-0.1,0.1-0.1,0.1c-1,1-2,2.1-2.9,3.3c-0.4-0.7-0.8-1.3-1.3-1.9c-0.2-0.2-0.4-0.5-0.6-0.7c0.9-0.4,1.9-0.9,3-1.8
		c3.8-3.1,5.9-7.5,5.9-12.7c0-4.6-0.4-9.8-4.9-14.5C79.5,4.9,75,2.9,63.9,0.8C61.4,0.3,56.3,0,53.7,0c-1.8,0-6.1,0-8.8,0.4
		c-2.3,0.3-4.2,0.7-5.7,1C33.5,2.8,27.8,4.9,22,7.9c-5.8,3-10.6,6.2-14.1,9.6c-2.3,2.2-3.3,4-4.2,5.5c-0.2,0.3-0.4,0.6-0.6,1
		C1.2,27.3,0,31.2,0,34.5c0,3.1,0,7.9,3.5,12c4,4.7,10,7.1,17.9,7.1c0.7,0,1.3,0,1.9,0l-4.8,14.2c0,0.1-0.1,0.2-0.1,0.4
		c-0.3,1-0.6,2.2-1,3.7c-0.5,2-0.8,3.6-0.8,5c0,3.3,1.4,5.5,2.5,6.7c2.2,2.3,4.5,2.8,6.1,2.8c4.6,0,8-2.7,8.7-7
		c0-0.3,0.1-0.6,0.1-0.9c0-1-0.2-2-0.6-3.3c0-0.1,0-0.2-0.1-0.2c0-0.2,0.6-1.8,0.6-1c0,3.3,1.4,5.4,2.6,6.6c1.8,1.8,3.7,2.4,5.2,2.5
		c-0.5,1.8-0.7,3.3-0.7,4.6c-0.1,3.2,1.1,5.2,2.1,6.4c1.6,1.9,3.7,3,6.2,3c4.3,0,7.5-2.6,8.2-6.7c0-0.3,0.1-0.5,0.1-0.8
		c0-0.9-0.1-1.9-0.5-3.1c0-0.1,0-0.2,0-0.2c0-0.1,0-0.5,0.1-1c0.1-0.5,0.2-0.9,0.3-1.2c0.1-0.3,0.6-1.7,1.3-3.9
		c1.8,1.1,4,1.6,6.4,1.6c1.3,0,2.6-0.3,4-0.8c1.5-0.5,2.9-1.4,4.2-2.5c0,0,0.1-0.1,0.1-0.1c1-0.9,1.9-2,2.8-3.2
		c0.4,0.7,0.8,1.4,1.3,2c2.3,2.8,5.5,4.3,9.3,4.4c0.1,0,0.2,0,0.3,0c4.9,0,9.5-2.7,14-8.2c0.5,1.4,1.2,2.6,2.1,3.6
		c2.3,2.7,5.5,4.2,9.3,4.3c0.1,0,0.3,0,0.3,0c2.3,0,6.1-0.7,10.2-4.1c1.1,2.2,3,3.1,3.9,3.4c1,0.3,1.9,0.5,2.8,0.5
		c1.3,0,4.3-0.4,6.3-3.4c0.9,1.5,2.2,2.3,2.8,2.7c1,0.6,2.2,0.8,3.4,0.8c2.1,0,4.1-0.9,5.6-2.5c0.6,0.7,1.2,1.3,1.9,1.7
		c1.1,0.6,2.3,1,3.6,1c2.3,0,4.5-1.1,6.2-3.1c0.5-0.7,1-1.3,1.4-2c0.2,0.2,0.4,0.5,0.6,0.7c1.3,1.3,2.7,2.3,4.4,3
		c1.4,0.6,3.2,0.7,4.5,0.7h0c3.6,0,7.1-1.1,9.9-3.2c4.4-3.2,7-9.6,8.2-13.1C190.4,59,191.2,53.9,191,48.9L191,48.9z M108.5,40.4
		L108.5,40.4C108.5,40.4,108.5,40.4,108.5,40.4c-1.3,1.7-2.6,3.8-3.8,6.3c-0.4-0.1-0.7-0.1-1.1-0.2c0,0,0-0.1,0-0.1
		c0.1-2.4-0.4-4.3-1.1-5.8c0.2,0,0.4,0,0.5,0C104.7,40.6,106.5,40.6,108.5,40.4L108.5,40.4z M33.3,26.1L33.3,26.1
		c-1.7,4.3-3.3,8.7-5,13c-0.3-0.1-0.6-0.2-0.9-0.3c-1.2-0.3-2.6-0.5-4.2-0.5c-3.5,0-6-0.6-6.9-1.7c-0.4-0.5-0.5-1.5-0.5-2
		c0,0,0.1-0.8,1.4-2.8c1.2-1.8,2.9-3.6,5.1-5.4c3-2.5,6.7-4.8,10.9-6.7c1.2-0.6,2.5-1.1,3.7-1.5C34.4,23.7,33.6,25.4,33.3,26.1
		L33.3,26.1z M172.9,15.2L172.9,15.2v2h-1.2c-0.9,0-1.3-0.2-1.3-1c0-0.8,0.5-0.9,1.4-0.9H172.9L172.9,15.2z M167.6,21.9
		c0.3,0.1,0.5,0.2,0.9,0.2c1.8,0,2.3-1.2,2.8-2.3c0.3-0.6,0.6-1,1.6-1v3.1h2.4v-8.7h-3.9c-2.6,0-3.7,1.1-3.7,2.7
		c0,1.2,0.6,1.8,2,2.2c-0.5,0.2-0.8,0.5-0.9,0.7c-0.4,0.6-0.4,1.1-1,1.2c-0.1,0-0.2,0-0.3,0V21.9L167.6,21.9z M160.2,17.8v-4.5h-2.4
		v8.7h2.4v-1.2l2.9-3.2v4.4h2.4v-8.7h-2.4v1.3L160.2,17.8L160.2,17.8z M149.7,17.6L149.7,17.6c0-2.1,1.2-2.4,1.7-2.4
		c0.6,0,1.7,0.5,1.7,2.4c0,1.9-1,2.4-1.7,2.4C150.9,20,149.7,19.7,149.7,17.6L149.7,17.6z M139.9,16.5L139.9,16.5
		c0-1.5,1-1.7,1.5-1.7c1.3,0,1.4,1.2,1.4,1.7H139.9L139.9,16.5z M144.1,19.1c-0.7,0.5-1.3,0.9-2.2,0.9c-1,0-2-0.7-2-1.9h5.5
		c0.1-3.8-2.1-5.1-4-5.1c-2,0-4.2,1.4-4.2,4.5c0,2.9,2,4.6,4.4,4.6c1.7,0,2.7-0.6,3.7-1.7L144.1,19.1L144.1,19.1z M129.8,19.9v-6.7
		h-2.4v8.7h6.5v2.5h2.2v-4.5h-1v-6.7h-2.4v6.7H129.8L129.8,19.9z M119.3,19.9v-6.7h-2.4v8.7h6.5v2.5h2.2v-4.5h-1v-6.7h-2.4v6.7
		H119.3L119.3,19.9z M108.8,17.8v-4.5h-2.4v8.7h2.4v-1.2l2.9-3.2v4.4h2.4v-8.7h-2.4v1.3L108.8,17.8L108.8,17.8z M96.2,11.4h4.6v10.5
		h2.8V9.3H93.5v12.6h2.8V11.4L96.2,11.4z"/>
	<path style="fill-rule:evenodd;clip-rule:evenodd;fill:#FFFFFF;" d="M181.3,51.6L181.3,51.6c-0.1,0.7-0.1,1.3-0.2,1.9
		c0,0.1-0.8,4.4-0.8,4.4c-0.6,2.6-1.2,5.2-2.5,7.6c-2.1,3.8-4.7,5.5-6.6,5.5c-1.4,0.1-2.4-0.5-3-1.7c-0.6-1.2-1-2.8-1-4.8
		c0-0.7,0-1.4,0.1-2.3c0.1-0.7,0.3-2.3,0.3-2.9c0.2-2.6,1.9-8.7,3.2-11.1c1.4-2.6,2.4-4.5,4.1-4.9c0.8-0.2,1.7,0.2,1.8,1.6
		c0,0.5,0,1,0,1.5c0.1,1,0.9,1.6,1.8,1.6c0.7,0,2.1,0,2.7-1c0.1,0.7,0.2,1.5,0.3,2.4C181.4,50,181.3,50.7,181.3,51.6L181.3,51.6z
		 M182.9,40.9c-1.4-1.4-3.2-2.1-5.4-2c-0.4,0-2.5-0.2-4.7,0.7c-0.8,0.4-1.6,0.9-2.4,1.7c-2.1,2.2-4,5.7-5.5,10.2
		c-1.6,4.6-2.3,9-2.1,13.2c0.2,3.8,1,6.5,2.7,8.3c0.7,0.8,1.6,1.3,2.5,1.6c0.5,0.3,5.1,1.1,9.1-1.8c2.5-1.8,4.8-5.9,6.3-10.5
		c1.6-4.6,2.3-9,2.1-13.2C185.4,45.4,184.5,42.6,182.9,40.9L182.9,40.9z M76.8,42.9c-1.3-1.5-3-2.3-5.2-2.4c-1.6,0-3.3,0.5-5,1.5
		c0.8-2,1.6-3.6,2.1-4.3c0.8-1,1.9-3.4,2.5-5.1c0.4-1.3-0.8-2.1-1.3-2.1c-0.9,0-1.8,0.3-2.5,0.8c-0.8,0.6-1.5,1.6-2.1,3
		c-1.9,4.1-3.1,6.8-3.5,7.9c-1.9,5-3.8,10-5.7,14.9c0,0-4.1,12.2-5,14.3l-3.1,9.5c-0.2,0.9-0.6,2.1-0.9,3.5
		c-0.4,1.4-0.6,2.5-0.6,3.4c0,1.2,0.3,2.1,0.8,2.8c0.6,0.7,1.2,1,1.9,1.1c1.7,0,2.7-0.7,3-2.2c0-0.4-0.1-0.9-0.3-1.5
		c-0.2-0.6-0.3-1.2-0.3-1.8c0-0.6,0.1-1.2,0.2-2c0.1-0.8,0.3-1.4,0.5-1.9c0,0,7.7-23.2,10-29c0.2-0.6,0.5-1.4,0.9-2.3
		c0.2-0.2,0.3-0.5,0.5-0.7c2.9-3.8,5.3-5.7,7.4-5.7c1.4,0,2.3,0.7,2.9,1.9c0.5,1.2,0.8,2.9,0.7,4.8c0,0.7-0.1,1.4-0.2,2.2
		c-0.1,0.7-0.2,1.3-0.3,1.9c0,0.1-0.5,3-1.1,4.3c0,0,0,0,0,0c-0.8,2.9-2,5.6-3.5,8.2c-1.5,2.6-2.7,3.9-3.7,3.9c-1,0-2.5-0.7-2.8-3
		c-0.1-1-0.8-1.8-1.7-1.8c-0.9,0-2.4,0.2-2.6,2.2c-0.1,0.7,0,2,0.2,2.7c0.6,2,2.1,4.3,6.1,4.3c0.6,0,1.3-0.1,2.2-0.4
		c0.8-0.3,1.7-0.8,2.5-1.5c2.3-2.1,4.3-5.4,6.2-9.8c1.9-4.5,2.9-8.8,3-13.1C79,47.5,78.3,44.7,76.8,42.9L76.8,42.9z M28.6,70.9
		c0,0,5.2-15.2,5.1-15.3c1.2-4.3,3.1-9.6,5.6-15.8c1.2-3.2,2.4-5.8,3.4-7.9c1.7-3.5,3.3-6.4,5-8.7c0.8-1.1,1.4-2.1,1.7-2.9
		c0.3-0.8,0.5-1.5,0.5-2.1c0-0.8-0.3-1.5-0.8-2c-0.5-0.5-1.1-0.7-1.7-0.7c-1,0-2,0.3-2.9,0.9c-0.9,0.6-1.6,1.7-2.3,3.2
		c-2.1,4.4-3.3,7.2-3.8,8.4c-2.1,5.4-4.1,10.7-6.1,16l-8.6,25.4c-0.3,1-0.6,2.2-1,3.7c-0.4,1.5-0.6,2.7-0.6,3.6c0,1.2,0.3,2.2,1,2.9
		c0.7,0.7,1.4,1.1,2.2,1.1c1.9,0,3-0.8,3.3-2.4c0-0.4-0.1-0.9-0.3-1.6c-0.2-0.7-0.3-1.3-0.3-1.9c0-0.6,0.1-1.3,0.2-2.1
		C28.3,72,28.4,71.4,28.6,70.9L28.6,70.9z M18.9,22.3c3.4-2.9,7.5-5.4,12.1-7.5c4.7-2.1,9.1-3.5,13.3-4.3c2.5-0.5,5.1-0.7,7.8-0.7
		c6.7,0,15,1.1,19.7,3.4c6.5,3.3,7.8,6.6,7.4,11.6c-0.3,4.2-3.9,4.8-4.4,6.9c-0.3,1.3,0.4,2.3,1.8,2.2c0.8-0.1,1.7,0.1,3.5-1.3
		c2-1.6,3.8-4.2,3.8-8.5c0-4.3-0.4-7.7-3.4-10.6C76.6,9.7,73,8,62.9,6.1c-2-0.4-6.8-0.7-9.2-0.7c-2.2,0-5.9,0.1-8.1,0.4
		c-2.1,0.3-3.9,0.6-5.2,0.9c-5.3,1.2-10.6,3.2-15.9,6c-5.4,2.7-9.6,5.6-12.8,8.7c-2.2,2.1-2.7,3.5-3.9,5.4c-1.5,2.4-2.4,5.4-2.4,7.7
		c0,3.3,0.2,6.1,2.2,8.5c2.9,3.5,7.5,5.2,13.8,5.2c2,0,3.4-0.2,4.4-0.5c1-0.3,1.5-1,1.5-2.1c0-0.8-0.4-1.4-1.2-1.6
		c-0.8-0.2-1.8-0.3-2.9-0.3c-5.4,0-9.1-1.3-11.1-3.8c-1.1-1.4-1.6-3.2-1.6-5.4c0-1.6,0.8-3.5,2.3-5.8C14.3,26.6,16.3,24.4,18.9,22.3
		L18.9,22.3z M45.9,68.4c0,0,5.1-14.2,5.1-14.2c1.2-4,3.1-8.9,5.7-14.7c1.2-3,2.4-5.5,3.4-7.4c1.7-3.3,3.3-6,5-8.1
		c0.8-1,1.4-1.9,1.8-2.7c0.3-0.8,0.5-1.4,0.5-2c0-0.8-0.3-1.4-0.8-1.8c-0.5-0.4-1.1-0.6-1.7-0.6c-1,0-2,0.3-2.9,0.9
		c-0.9,0.6-1.6,1.6-2.3,3c-2.1,4.1-3.3,6.8-3.8,7.9c-2.1,5-4.1,10-6.1,14.9c0,0-4.4,12.1-5.4,14.2l-3.3,9.5c-0.3,0.9-0.6,2.1-1,3.5
		c-0.4,1.4-0.6,2.5-0.6,3.4c0,1.2,0.3,2.1,1,2.7c0.7,0.7,1.4,1,2.2,1c1.9,0,3-0.8,3.3-2.3c0-0.4-0.1-0.9-0.3-1.5
		c-0.2-0.6-0.3-1.2-0.3-1.8c0-0.5,0.1-1.2,0.2-1.9C45.5,69.5,45.7,68.9,45.9,68.4L45.9,68.4z M163.6,46.2L163.6,46.2
		C163.6,46.2,163.6,46.2,163.6,46.2L163.6,46.2L163.6,46.2z M104.6,54.3L104.6,54.3c-0.6,3.7-2,7.5-5.7,12.9
		c-4.1,5.9-8.1,8.8-11.8,8.7c-2.2-0.1-4-0.9-5.3-2.4c-1.5-1.8-2.2-4.7-2.1-8.5c0.1-4.3,1.1-8.7,3-13.2c1.9-4.5,4-7.8,6.2-9.9
		c0.8-0.7,1.6-1.2,2.5-1.5c0.8-0.3,1.6-0.5,2.2-0.4c1.1,0,2.1,0.4,2.9,1.3c1.2,1.2,1.7,2.9,1.7,5c-0.1,4-1.2,7.4-3.5,10.3
		c-2.2,2.9-4.9,4.3-8.1,4.2c-0.7,0-1.3-0.1-2.1-0.3c-0.1,0.7-0.3,1.5-0.4,2.3c-0.1,0.8-0.2,1.6-0.2,2.3c0,2,0.2,3.6,0.7,4.9
		c0.5,1.3,1.5,1.9,2.9,1.9c2.1,0.1,4.6-1.8,7.5-5.7c2.9-3.9,4.3-6.5,5.2-10.4c0.3-1,0.6-2.4,0.8-2.8c0.4-0.9,1.4-1.1,2.2-1.1
		C104.1,52,104.8,52.8,104.6,54.3L104.6,54.3z M94.1,46.7c0-1.6-0.4-2.4-1.4-2.4c-1,0-2.3,1.3-3.7,3.9c-1.5,2.7-2.6,5.4-3.5,8.3
		c0.3,0.2,0.6,0.3,0.9,0.4c0.3,0.1,0.6,0.1,0.9,0.1c1.8,0,3.4-1.1,4.7-3.3C93.4,51.5,94.1,49.1,94.1,46.7L94.1,46.7z M173.4,32.9
		c-0.7,2-3.1,2.1-8.6,1.8c-3.2-0.2-17-0.7-32.6-0.4c-7.7,0.2-19.7,0.4-24.1,0.7c-6.5,0.5-12.5,0.2-13.6-1.6
		c-0.7-1.2,1.8-2.8,9.4-2.8c7.6,0,25.3-0.1,36,0c10.8,0.1,24.5-0.1,24.5-0.1S174.5,30.1,173.4,32.9L173.4,32.9z M157.5,41.8
		c-3.1-1.7-5.7-0.5-8.3,0.9c-0.6-0.5-1.5-1.1-2.3-1.3c-3.3-1-5.2-0.4-6.8,1.1c0.3-1,0.7-1.8,0.9-2.6c0.4-1.3-0.4-2.9-1.3-3.1
		c-1.1-0.3-2.8,0.5-3.3,2.6c-3.5,12.7-4.5,19.9-8,31.3c-0.4,1.3-1.2,4.1,0.3,4.6c1.4,0.5,2.8,0.3,3.7-2.3c2.8-8.3,6.2-21.3,7.1-24.3
		c1-3.3,5.2-4.6,6.7-2.5c0.1,0.1,0.1,0.2,0.2,0.3c1,2.1,0.3,4.9,0,7c-0.4,2.5-1.1,4.9-1.8,7.3c-1.2,4.1-2,6.2-3.6,10.8
		c-0.8,2.3-0.3,3.2,0.7,3.7c1,0.5,2.5,0,3.2-1.8c1.9-4.7,3-8.9,4.4-13.8c1-3.7,1.9-7.4,1.9-11.2c0-0.9,0-1.5-0.3-2.3
		c1.7-1,3.9-1.7,5.5,0.2c1.8,2.3,1.2,5.9,1,8.6c-0.3,3.3-1.5,6.3-2.4,9.5c-0.6,2.1-1.8,4.9-2.7,7.7c-0.6,1.7-0.2,2.9,0.6,3.4
		c0.7,0.4,1.9,0.2,2.8-0.9c2.2-2.6,2.8-6.5,3.9-10.7c1.1-4.4,2.3-9.3,2.2-13.9C161.5,46.6,160.7,43.6,157.5,41.8L157.5,41.8z
		 M127.3,54.2c-1.3-0.1-2.2,0.9-2.6,1.8c-0.2,0.4-0.5,1.7-0.9,2.7c-1.2,3-1.6,4.5-3.2,7.5c-2.3,4.2-5.3,5.7-7.4,5.7
		c-1.4,0-2.3-0.7-2.9-1.9c-0.5-1.2-0.8-2.9-0.7-4.8c0-0.7,0.1-1.4,0.2-2.2c0.1-0.7,0.2-1.3,0.3-1.9c0-0.1,0.5-3,1.1-4.3c0,0,0,0,0,0
		c0.8-2.9,2-5.6,3.5-8.2c1.5-2.6,2.7-3.8,3.7-3.9c2.8-0.3,3.1,2,3.1,2.9c0.1,1,0.9,2,1.8,2c0.9,0,2.3-0.4,2.4-2.4
		c0.1-0.7,0-2-0.5-3.2c-0.9-2-2-3.5-6.1-3.5c-0.6,0-1.3,0.1-2.2,0.4c-0.8,0.3-1.7,0.8-2.5,1.5c-2.3,2.1-4.3,5.4-6.2,9.8
		c-1.9,4.5-2.9,8.8-3,13.1c-0.1,3.8,0.6,6.6,2.1,8.4c1.3,1.5,3,2.3,5.2,2.4c3.8,0.1,8-2.6,11.7-8.6c1.9-3.1,3.5-6.3,4.3-9.9
		C129.2,55.2,128.7,54.3,127.3,54.2L127.3,54.2z"/>
</g>
</svg>
