<svg xmlns="http://www.w3.org/2000/svg" viewBox="0 0 10000 10000">


    <symbol id="icon-pizza" viewBox="0 0 45 41">
        <g>
            <path style="fill:#D8CBAB;" d="M44.7,34.7l-6.2-15.9c0-0.2-0.2-0.3-0.4-0.3H6.7c-0.2,0-0.4,0.1-0.4,0.3L0.1,34.7
		c-0.1,0.3,0.1,0.5,0.4,0.5h17.5c0.2,0,0.4,0.2,0.4,0.4c0.4,1.6,2,2.8,3.9,2.8c1.9,0,3.5-1.2,3.9-2.8c0-0.2,0.2-0.4,0.4-0.4h17.5
		C44.5,35.2,44.7,34.9,44.7,34.7L44.7,34.7z M44.7,34.7"/>
            <path style="fill:#FAF5E5;" d="M26.7,35.2c-0.2,0-0.4,0.2-0.4,0.4c-0.4,1.6-2,2.8-3.9,2.8c-1.9,0-3.5-1.2-3.9-2.8
		c-0.1-0.2-0.2-0.4-0.4-0.4H0.2c-0.1,0-0.2,0.1-0.2,0.2v4.9c0,0.3,0.2,0.5,0.5,0.5h43.9c0.3,0,0.5-0.2,0.5-0.5v-5
		c0-0.1,0-0.1-0.1-0.1H26.7z M26.7,35.2"/>
            <path style="fill:#FAF8D2;" d="M7.6,35.2h10.5c0.2,0,0.4,0.2,0.4,0.4c0.4,1.6,2,2.8,3.9,2.8c1.9,0,3.5-1.2,3.9-2.8
		c0.1-0.2,0.2-0.4,0.4-0.4h10.5c2.7-1.7,4.4-4.9,4.4-7.2c0-5.3-8.6-9.6-19.2-9.6c-10.6,0-19.2,4.3-19.2,9.6
		C3.2,30.3,4.8,33.5,7.6,35.2L7.6,35.2z M7.6,35.2"/>
            <path style="fill:#FAF5E5;" d="M42.4,0h-40v2.4h17.7C20,2.5,20,2.7,20,2.8c0,1.1,1.3,2,2.8,2s2.8-0.9,2.8-2c0-0.1,0-0.3-0.1-0.4
		h16.9V0z M42.4,0"/>
            <path style="fill:#E8DFC5;" d="M25.5,2.4c0,0.1,0.1,0.3,0.1,0.4c0,1.1-1.3,2-2.8,2S20,3.9,20,2.8c0-0.1,0-0.3,0.1-0.4H3.2l3.6,16
		h31.7l3.9-16H25.5z M25.5,2.4"/>
            <path style="fill:#CD6E61;" d="M12.8,30.4c0,0.9-1.1,1.6-2.4,1.6C9.1,32,8,31.3,8,30.4c0-0.9,1.1-1.6,2.4-1.6
		C11.7,28.8,12.8,29.5,12.8,30.4L12.8,30.4z M12.8,30.4"/>
            <path style="fill:#773F3A;" d="M15.2,24c0,0.9-1.1,1.6-2.4,1.6c-1.3,0-2.4-0.7-2.4-1.6s1.1-1.6,2.4-1.6
		C14.1,22.4,15.2,23.1,15.2,24L15.2,24z M15.2,24"/>
            <path style="fill:#CD6E61;" d="M23.2,22.4c0,0.9-1.1,1.6-2.4,1.6c-1.3,0-2.4-0.7-2.4-1.6c0-0.9,1.1-1.6,2.4-1.6
		C22.1,20.8,23.2,21.5,23.2,22.4L23.2,22.4z M23.2,22.4"/>
            <path style="fill:#773F3A;" d="M31.2,23.2c0,0.9-1.1,1.6-2.4,1.6c-1.3,0-2.4-0.7-2.4-1.6s1.1-1.6,2.4-1.6
		C30.1,21.6,31.2,22.3,31.2,23.2L31.2,23.2z M31.2,23.2"/>
            <path style="fill:#CD6E61;" d="M38.4,26.4c0,0.9-1.1,1.6-2.4,1.6c-1.3,0-2.4-0.7-2.4-1.6c0-0.9,1.1-1.6,2.4-1.6
		C37.3,24.8,38.4,25.5,38.4,26.4L38.4,26.4z M38.4,26.4"/>
            <path style="fill:#CD6E61;" d="M33.6,31.2c0,0.9-1.1,1.6-2.4,1.6c-1.3,0-2.4-0.7-2.4-1.6s1.1-1.6,2.4-1.6
		C32.5,29.6,33.6,30.3,33.6,31.2L33.6,31.2z M33.6,31.2"/>
            <path style="fill:#773F3A;" d="M24.8,32.8c0,0.9-1.1,1.6-2.4,1.6c-1.3,0-2.4-0.7-2.4-1.6s1.1-1.6,2.4-1.6
		C23.7,31.2,24.8,31.9,24.8,32.8L24.8,32.8z M24.8,32.8"/>
            <path style="fill:#88C057;" d="M14.6,32.8c-0.1,0-0.1,0-0.2,0c-0.4-0.1-0.7-0.5-0.6-0.9c0.1-0.6,0.6-1,1.2-1
		c0.2-0.4,0.6-0.7,1.1-0.7c0.2-0.3,0.5-0.4,0.8-0.3c0.4,0.1,0.7,0.5,0.6,0.9c-0.1,0.6-0.6,1-1.2,1c-0.2,0.4-0.6,0.7-1.1,0.7
		C15.2,32.7,14.9,32.8,14.6,32.8L14.6,32.8z M14.6,32.8"/>
            <path style="fill:#88C057;" d="M7.2,28.8c-0.1,0-0.1,0-0.2,0c-0.4-0.1-0.7-0.5-0.6-0.9c0.1-0.6,0.6-1,1.2-1
		c0.2-0.4,0.6-0.7,1.1-0.7c0.2-0.3,0.5-0.4,0.8-0.3c0.4,0.1,0.7,0.5,0.6,0.9c-0.1,0.6-0.6,1-1.2,1c-0.2,0.4-0.6,0.7-1.1,0.7
		C7.7,28.7,7.5,28.8,7.2,28.8L7.2,28.8z M7.2,28.8"/>
            <path style="fill:#88C057;" d="M26.1,30.1c-0.2,0-0.4-0.1-0.6-0.2c-0.2-0.1-0.4-0.3-0.5-0.5c-0.2,0-0.4,0-0.6-0.1
		c-0.2-0.1-0.4-0.3-0.5-0.5c-0.3,0-0.6-0.2-0.7-0.6c-0.1-0.4,0.1-0.9,0.5-1c0.3-0.1,0.7-0.1,1,0.1c0.2,0.1,0.4,0.3,0.5,0.5
		c0.5,0,0.9,0.2,1.1,0.6c0.3,0,0.6,0.2,0.7,0.6c0.1,0.4-0.1,0.9-0.5,1C26.3,30,26.2,30.1,26.1,30.1L26.1,30.1z M26.4,28.7L26.4,28.7
		L26.4,28.7L26.4,28.7z M24.8,27.9C24.8,27.9,24.8,27.9,24.8,27.9C24.8,27.9,24.8,27.9,24.8,27.9L24.8,27.9z M24.8,27.9"/>
            <path style="fill:#88C057;" d="M23.2,24c-0.1,0-0.3,0-0.4-0.1c-0.4-0.2-0.5-0.7-0.3-1.1c0.3-0.5,0.9-0.8,1.4-0.6
		c0.3-0.3,0.8-0.5,1.3-0.4c0.2-0.2,0.6-0.2,0.9-0.1c0.4,0.2,0.5,0.7,0.3,1.1c-0.3,0.5-0.9,0.8-1.4,0.6c-0.2,0.2-0.3,0.3-0.6,0.4
		c-0.2,0.1-0.5,0.1-0.7,0C23.6,23.9,23.4,24,23.2,24L23.2,24z M23.7,22.5L23.7,22.5z M24.2,22.3C24.2,22.3,24.2,22.3,24.2,22.3
		S24.2,22.3,24.2,22.3L24.2,22.3z M25.4,21.9C25.4,21.9,25.4,21.9,25.4,21.9C25.4,21.9,25.4,21.9,25.4,21.9L25.4,21.9z M25.4,21.9"
            />
            <path style="fill:#88C057;" d="M33.6,29.9c-0.2,0-0.4,0-0.5-0.1c-0.3,0.1-0.6,0.1-0.9-0.1c-0.3-0.3-0.4-0.8-0.1-1.1
		c0.2-0.3,0.5-0.4,0.8-0.5c0.2,0,0.5,0,0.7,0.1c0.2-0.1,0.4-0.2,0.6-0.3c0.2,0,0.5,0,0.7,0.1c0.3-0.2,0.6-0.1,0.9,0.1
		c0.3,0.3,0.4,0.8,0.1,1.1c-0.4,0.5-1,0.6-1.5,0.4c-0.2,0.1-0.4,0.2-0.6,0.3C33.7,29.9,33.6,29.9,33.6,29.9L33.6,29.9z M34.6,29.5
		L34.6,29.5z M33.8,28.4L33.8,28.4L33.8,28.4z M33.8,28.4"/>
            <path style="fill:#88C057;" d="M19.1,27.7c-0.2,0-0.4-0.1-0.6-0.2c-0.2-0.1-0.4-0.3-0.5-0.5c-0.2,0-0.4,0-0.6-0.1
		c-0.2-0.1-0.4-0.3-0.5-0.5c-0.3,0-0.6-0.3-0.7-0.6c-0.1-0.4,0.1-0.9,0.5-1c0.3-0.1,0.7-0.1,1,0.1c0.2,0.1,0.4,0.3,0.5,0.5
		c0.5,0,0.9,0.2,1.1,0.6c0.3,0,0.6,0.2,0.7,0.6c0.1,0.4-0.1,0.9-0.5,1C19.3,27.6,19.2,27.7,19.1,27.7L19.1,27.7z M19.4,26.3
		L19.4,26.3z M17.8,25.5L17.8,25.5L17.8,25.5L17.8,25.5z M17.8,25.5"/>
            <path style="fill:#FBD490;" d="M22.4,18.4c-10.6,0-19.2,4.3-19.2,9.6c0,2.3,1.6,5.5,4.4,7.2h2.2c-0.6-0.5-1.2-1-1.7-1.6h0
		c-2-1.4-3.3-3.9-3.3-5.6c0-1.9,1.7-3.9,4.7-5.4c3.4-1.7,8-2.6,12.9-2.6c4.9,0,9.5,0.9,12.9,2.6c3,1.5,4.7,3.5,4.7,5.4
		c0,1.6-1.1,4-3,5.4c0,0,0,0,0,0c-0.3,0.4-0.6,0.8-0.9,1.1c-0.3,0.2-0.6,0.5-0.9,0.7h2.1c2.7-1.7,4.4-4.9,4.4-7.2
		C41.6,22.7,33,18.4,22.4,18.4L22.4,18.4z M22.4,18.4"/>
            <path style="fill:#FFFFFF;" d="M19.2,17c-0.2,0-0.4-0.1-0.6-0.2c-0.7-0.7-1.1-1.6-1.1-2.6c0-1,0.4-1.9,1.1-2.6
		c0.8-0.8,0.8-2.1,0-2.9c-0.3-0.3-0.3-0.8,0-1.1c0.3-0.3,0.8-0.3,1.1,0c1.4,1.4,1.4,3.8,0,5.2c-0.4,0.4-0.6,0.9-0.6,1.5
		c0,0.6,0.2,1.1,0.6,1.5c0.3,0.3,0.3,0.8,0,1.1C19.6,16.9,19.4,17,19.2,17L19.2,17z M19.2,17"/>
            <path style="fill:#FFFFFF;" d="M10.4,17c-0.2,0-0.4-0.1-0.6-0.2c-0.7-0.7-1.1-1.6-1.1-2.6c0-1,0.4-1.9,1.1-2.6
		c0.8-0.8,0.8-2.1,0-2.9c-0.3-0.3-0.3-0.8,0-1.1c0.3-0.3,0.8-0.3,1.1,0c1.4,1.4,1.4,3.8,0,5.2c-0.4,0.4-0.6,0.9-0.6,1.5
		c0,0.6,0.2,1.1,0.6,1.5c0.3,0.3,0.3,0.8,0,1.1C10.9,16.9,10.6,17,10.4,17L10.4,17z M10.4,17"/>
            <path style="fill:#FFFFFF;" d="M15.2,14.6c-0.2,0-0.4-0.1-0.6-0.2c-0.7-0.7-1.1-1.6-1.1-2.6c0-1,0.4-1.9,1.1-2.6
		c0.8-0.8,0.8-2.1,0-2.9c-0.3-0.3-0.3-0.8,0-1.1c0.3-0.3,0.8-0.3,1.1,0c1.4,1.4,1.4,3.8,0,5.2c-0.4,0.4-0.6,0.9-0.6,1.5
		c0,0.6,0.2,1.1,0.6,1.5c0.3,0.3,0.3,0.8,0,1.1C15.6,14.5,15.4,14.6,15.2,14.6L15.2,14.6z M15.2,14.6"/>
        </g>
    </symbol>

    <symbol id="icon-roll" viewBox="0 0 39 41">
            <g>
                <path style="clip-path:url(#SVGID_2_);fill:#E6E6E6;" d="M17.4,24.9H2.6c-1.8,0-3-1.8-2.5-3.5c1-3.2,2.2-5.3,5.5-5.3h8.8
			c3.3,0,4.4,2.1,5.5,5.3C20.4,23.1,19.2,24.9,17.4,24.9L17.4,24.9z M17.4,24.9"/>
            </g>
            <path style="fill:#455560;" d="M20,22.6c-0.2,1.3-1.2,2.3-2.6,2.3H2.6c-1.4,0-2.4-1-2.6-2.3c0,0,0,0,0,0v13.2
		c0,2.3,1.9,4.2,4.2,4.2h11.6c2.3,0,4.2-1.9,4.2-4.2L20,22.6C20,22.6,20,22.6,20,22.6L20,22.6z M20,22.6"/>
            <path style="fill:#D75A4A;" d="M14.4,20.5c0,1.1-2,2-4.4,2c-2.4,0-4.4-0.9-4.4-2c0-1.1,2-2,4.4-2C12.4,18.5,14.4,19.4,14.4,20.5
		L14.4,20.5z M14.4,20.5"/>
            <path style="fill:#E6E6E6;" d="M27,12.1H12.2c-1.8,0-3-1.8-2.5-3.5c1-3.2,2.2-5.3,5.5-5.3H24c3.3,0,4.4,2.1,5.5,5.3
		C30,10.3,28.8,12.1,27,12.1L27,12.1z M27,12.1"/>
            <path style="fill:#D75A4A;" d="M24,7.7c0,1.1-2,2-4.4,2c-2.4,0-4.4-0.9-4.4-2c0-1.1,2-2,4.4-2C22,5.7,24,6.6,24,7.7L24,7.7z
		 M24,7.7"/>
            <path style="fill:#E6E6E6;" d="M38.3,21.4c-1-3.2-3.8-5.3-7.1-5.3h-9.6c-2.6,0-1.5,1.4-2.4,3.5c0.2,0.5,0.5,1.1,0.7,1.8
		c0.3,1,0,2.1-0.7,2.7c0.5,0.5,1.1,0.8,1.8,0.8h14.8C37.6,24.9,38.8,23.1,38.3,21.4L38.3,21.4z M38.3,21.4"/>
            <path style="fill:#38454F;" d="M38.4,22.6c-0.2,1.3-1.2,2.3-2.6,2.3H21c-0.4,0-0.7-0.1-1-0.2v11.2c0,0.9-0.3,1.8-0.8,2.4
		c0.8,1.1,2,1.8,3.4,1.8h11.6c2.3,0,4.2-1.9,4.2-4.2L38.4,22.6C38.4,22.6,38.4,22.6,38.4,22.6L38.4,22.6z M38.4,22.6"/>
            <path style="fill:#38454F;" d="M14.4,16.1c2.6,0,3.9,1.4,4.8,3.5c0.9-2.1-0.2-3.5,2.4-3.5h8V9.8c0,0,0,0,0,0
		c-0.2,1.2-1.2,2.3-2.6,2.3H12.2c-1.4,0-2.4-1-2.6-2.3c0,0,0,0,0,0v6.2H14.4z M14.4,16.1"/>
            <path style="fill:#D75A4A;" d="M32.8,20.5c0,1.1-2,2-4.4,2c-2.4,0-4.4-0.9-4.4-2c0-1.1,2-2,4.4-2C30.8,18.5,32.8,19.4,32.8,20.5
		L32.8,20.5z M32.8,20.5"/>
            <path style="fill:#546A79;" d="M4,37.7c-0.4,0-0.8-0.4-0.8-0.8v-4.8c0-0.4,0.4-0.8,0.8-0.8c0.4,0,0.8,0.4,0.8,0.8v4.8
		C4.8,37.3,4.4,37.7,4,37.7L4,37.7z M4,37.7"/>
            <path style="fill:#546A79;" d="M4,30.5c-0.4,0-0.8-0.4-0.8-0.8v-2.4c0-0.4,0.4-0.8,0.8-0.8c0.4,0,0.8,0.4,0.8,0.8v2.4
		C4.8,30.1,4.4,30.5,4,30.5L4,30.5z M4,30.5"/>
            <path style="fill:#546A79;" d="M24,37.7c-0.4,0-0.8-0.4-0.8-0.8v-4.8c0-0.4,0.4-0.8,0.8-0.8s0.8,0.4,0.8,0.8v4.8
		C24.8,37.3,24.4,37.7,24,37.7L24,37.7z M24,37.7"/>
            <path style="fill:#546A79;" d="M24,30.5c-0.4,0-0.8-0.4-0.8-0.8v-2.4c0-0.4,0.4-0.8,0.8-0.8s0.8,0.4,0.8,0.8v2.4
		C24.8,30.1,24.4,30.5,24,30.5L24,30.5z M24,30.5"/>
    </symbol>

    <symbol id="icon-salad" viewBox="0 0 46 40">
        <g>
            <g>

                <path style="clip-path:url(#SVGID_2_);fill:#E6E6E6;" d="M23.2,40H32c0.8,0,1.3-0.9,0.9-1.5l0,0c-0.6-0.9-0.7-2.1-0.2-3.1
			c0.4-0.9,1.2-1.6,2.1-2c6.2-3,10.6-6.2,11-13c0-0.6-0.5-1.2-1.1-1.2H1.1c-0.6,0-1.1,0.6-1.1,1.2c0.5,6.7,4.8,10,11,13
			c0.9,0.4,1.6,1.1,2.1,2c0.5,1,0.4,2.2-0.2,3.1l0,0C12.5,39.1,13,40,13.8,40H23.2z M23.2,40"/>
            </g>
            <path style="fill:#FFFFFF;" d="M28.8,35.2h-7c-0.4,0-0.8-0.4-0.8-0.8c0-0.4,0.4-0.8,0.8-0.8h7c0.4,0,0.8,0.4,0.8,0.8
		C29.6,34.8,29.2,35.2,28.8,35.2L28.8,35.2z M28.8,35.2"/>
            <path style="fill:#FFFFFF;" d="M19.5,35.2h-2.7c-0.4,0-0.8-0.4-0.8-0.8c0-0.4,0.4-0.8,0.8-0.8h2.7c0.4,0,0.8,0.4,0.8,0.8
		C20.3,34.8,19.9,35.2,19.5,35.2L19.5,35.2z M19.5,35.2"/>
            <path style="fill:#FFFFFF;" d="M28.8,37.6h-12c-0.4,0-0.8-0.4-0.8-0.8c0-0.4,0.4-0.8,0.8-0.8h12c0.4,0,0.8,0.4,0.8,0.8
		C29.6,37.2,29.2,37.6,28.8,37.6L28.8,37.6z M28.8,37.6"/>
            <path style="fill:#D13834;" d="M32.8,0c-4,0-7.2,3.2-7.2,7.2c0,0.6,0.1,1.1,0.2,1.6c0.4,0.4,1,0.6,1.6,0.3L27.7,9
		c0.9-0.4,1.9,0.2,2,1.1l0,0.3c0.1,0.7,0.6,1.2,1.3,1.3l0.3,0c1,0.1,1.5,1.1,1.1,2L32.3,14c0,0.1-0.1,0.2-0.1,0.3c0.2,0,0.4,0,0.6,0
		c4,0,7.2-3.2,7.2-7.2C40,3.2,36.8,0,32.8,0L32.8,0z M32.8,0"/>
            <path style="fill:#436B1C;" d="M40,7.6c-0.2,3.8-3.3,6.8-7.2,6.8c-0.2,0-0.4,0-0.6,0c-0.1,0.5,0.1,1.1,0.5,1.4L33,16
		c0.8,0.6,0.8,1.7,0,2.3l-0.3,0.2c-0.3,0.2-0.4,0.4-0.5,0.7c0,0,0,0,0,0H43c1.1-1.3,1.8-3,1.8-4.8C44.8,11.3,42.8,8.6,40,7.6L40,7.6
		z M40,7.6"/>
            <path style="fill:#ED3F32;" d="M31.7,6.9c-0.2,0-0.4-0.1-0.6-0.2l-2.3-2.3c-0.3-0.3-0.3-0.8,0-1.1c0.3-0.3,0.8-0.3,1.1,0l2.3,2.3
		c0.3,0.3,0.3,0.8,0,1.1C32.1,6.8,31.9,6.9,31.7,6.9L31.7,6.9z M31.7,6.9"/>
            <path style="fill:#ED3F32;" d="M36.2,11.4c-0.2,0-0.4-0.1-0.6-0.2l-2.3-2.3c-0.3-0.3-0.3-0.8,0-1.1c0.3-0.3,0.8-0.3,1.1,0l2.3,2.3
		c0.3,0.3,0.3,0.8,0,1.1C36.6,11.3,36.4,11.4,36.2,11.4L36.2,11.4z M36.2,11.4"/>
            <path style="fill:#ED3F32;" d="M33.9,6.9c-0.2,0-0.4-0.1-0.6-0.2c-0.3-0.3-0.3-0.8,0-1.1l2.3-2.3c0.3-0.3,0.8-0.3,1.1,0
		c0.3,0.3,0.3,0.8,0,1.1l-2.3,2.3C34.3,6.8,34.1,6.9,33.9,6.9L33.9,6.9z M33.9,6.9"/>
            <path style="fill:#ED3F32;" d="M29.8,11c-0.2,0-0.4-0.1-0.6-0.2c-0.3-0.3-0.3-0.8,0-1.1l1.9-1.9c0.3-0.3,0.8-0.3,1.1,0
		c0.3,0.3,0.3,0.8,0,1.1l-1.9,1.9C30.2,10.9,30,11,29.8,11L29.8,11z M29.8,11"/>
            <path style="fill:#659C35;" d="M42.4,14.4h-3.2c-0.4,0-0.8-0.4-0.8-0.8c0-0.4,0.4-0.8,0.8-0.8h3.2c0.4,0,0.8,0.4,0.8,0.8
		C43.2,14,42.8,14.4,42.4,14.4L42.4,14.4z M42.4,14.4"/>
            <path style="fill:#659C35;" d="M37.6,19.2c-0.4,0-0.8-0.4-0.8-0.8v-3.2c0-0.4,0.4-0.8,0.8-0.8c0.4,0,0.8,0.4,0.8,0.8v3.2
		C38.4,18.8,38,19.2,37.6,19.2L37.6,19.2z M37.6,19.2"/>
            <path style="fill:#88C057;" d="M18.8,11.8c0.8,0.2,1.2,1.1,0.8,1.9l-0.1,0.3c-0.3,0.6-0.1,1.3,0.5,1.7l0.3,0.2
		c0.8,0.6,0.8,1.7,0,2.3l-0.3,0.2c-0.3,0.2-0.4,0.5-0.5,0.8h12.8c0.1-0.3,0.3-0.6,0.5-0.8l0.3-0.2c0.8-0.6,0.8-1.7,0-2.3l-0.3-0.2
		c-0.5-0.4-0.7-1.1-0.5-1.7l0.1-0.3c0.4-0.9-0.2-1.9-1.1-2l-0.3,0c-0.7-0.1-1.2-0.6-1.3-1.3l0-0.3c-0.1-1-1.1-1.5-2-1.1l-0.3,0.1
		c-0.6,0.3-1.3,0.1-1.7-0.5l-0.2-0.3c-0.6-0.8-1.7-0.8-2.3,0L23,8.7c-0.4,0.5-1.1,0.7-1.7,0.5L20.9,9c-0.9-0.4-1.9,0.2-2,1.1l0,0.3
		c0,0.4-0.2,0.8-0.3,1C18.6,11.6,18.6,11.8,18.8,11.8L18.8,11.8z M18.8,11.8"/>
            <path style="fill:#A46F3E;" d="M10,8.2l4.6-6.5c0.8-1.1,2.3-1.3,3.3-0.6c1.1,0.8,1.3,2.3,0.6,3.3L14,11c-0.8,1.1-2.3,1.3-3.3,0.6
		C9.5,10.8,9.3,9.3,10,8.2L10,8.2z M10,8.2"/>
            <path style="fill:#FBD490;" d="M20.2,16l-0.3-0.2c-0.5-0.4-0.7-1.1-0.5-1.7l0.1-0.3c0.4-0.9-0.2-1.9-1.1-2l-0.3,0
		c-0.7-0.1-1.2-0.6-1.3-1.3l0-0.3c-0.1-0.8-0.7-1.3-1.4-1.3L14,11c-0.8,1.1-2.3,1.3-3.3,0.6C9.8,11,9.5,10,9.7,9.1
		c-0.4,0.2-0.8,0.2-1.2,0L8.1,9c-0.9-0.4-1.9,0.2-2,1.1l0,0.3c-0.1,0.7-0.6,1.2-1.3,1.3l-0.3,0c-1,0.1-1.5,1.1-1.1,2L3.5,14
		c0.3,0.6,0.1,1.3-0.5,1.7L2.8,16c-0.8,0.6-0.8,1.7,0,2.3l0.3,0.2c0.3,0.2,0.4,0.5,0.5,0.8h15.8c0.1-0.3,0.3-0.6,0.5-0.8l0.3-0.2
		C21,17.7,21,16.5,20.2,16L20.2,16z M20.2,16"/>
            <path style="fill:#436B1C;" d="M23.6,14c-0.2,0-0.4-0.1-0.6-0.2c-0.3-0.3-0.3-0.8,0-1.1l1.2-1.2c0.3-0.3,0.8-0.3,1.1,0
		c0.3,0.3,0.3,0.8,0,1.1l-1.2,1.2C24,13.9,23.8,14,23.6,14L23.6,14z M23.6,14"/>
            <path style="fill:#436B1C;" d="M28,16c-0.2,0-0.4-0.1-0.6-0.2L26.6,15c-0.3-0.3-0.3-0.8,0-1.1c0.3-0.3,0.8-0.3,1.1,0l0.8,0.8
		c0.3,0.3,0.3,0.8,0,1.1C28.4,15.9,28.2,16,28,16L28,16z M28,16"/>
            <path style="fill:#436B1C;" d="M24,17.6c-0.2,0-0.4-0.1-0.6-0.2c-0.3-0.3-0.3-0.8,0-1.1l0.8-0.8c0.3-0.3,0.8-0.3,1.1,0
		c0.3,0.3,0.3,0.8,0,1.1l-0.8,0.8C24.4,17.5,24.2,17.6,24,17.6L24,17.6z M24,17.6"/>
        </g>

    </symbol>

    <symbol id="icon-pot" viewBox="0 0 45 25">
        <g>
            <path style="fill:#FFEA33;" d="M36.6,2.3c0.5,0.5,0.2,1.5,0.4,2.1c0.3,0.6,1.2,1.1,1.2,1.8c0,0.7-0.9,1.2-1.2,1.8
		c-0.2,0.6,0,1.6-0.4,2.1c-0.5,0.5-1.5,0.2-2.1,0.4c-0.6,0.3-1.1,1.2-1.8,1.2c-0.7,0-1.2-0.9-1.8-1.2c-0.6-0.2-1.6,0-2.1-0.4
		c-0.5-0.5-0.2-1.5-0.4-2.1c-0.3-0.6-1.2-1.1-1.2-1.8c0-0.7,0.9-1.2,1.2-1.8c0.2-0.6,0-1.6,0.4-2.1c0.5-0.5,1.5-0.2,2.1-0.4
		c0.6-0.3,1.1-1.2,1.8-1.2c0.7,0,1.2,0.9,1.8,1.2C35.1,2.1,36.1,1.8,36.6,2.3z"/>
            <path style="fill:#FFB792;" d="M36.6,2.3c0.5,0.5,0.2,1.5,0.4,2.1c0.3,0.6,1.2,1.1,1.2,1.8c0,0.7-0.9,1.2-1.2,1.8
		c-0.2,0.6,0,1.6-0.4,2.1c-0.5,0.5-1.5,0.2-2.1,0.4c-0.6,0.3-1.1,1.2-1.8,1.2c-0.7,0-1.2-0.9-1.8-1.2c-0.6-0.2-1.6,0-2.1-0.4
		c-0.5-0.5-0.2-1.5-0.4-2.1c-0.3-0.6-1.2-1.1-1.2-1.8c0-0.7,0.9-1.2,1.2-1.8c0.2-0.6,0-1.6,0.4-2.1c0.5-0.5,1.5-0.2,2.1-0.4
		c0.6-0.3,1.1-1.2,1.8-1.2c0.7,0,1.2,0.9,1.8,1.2C35.1,2.1,36.1,1.8,36.6,2.3z"/>
            <circle style="fill:#F9D9CA;" cx="32.7" cy="6.2" r="3.1"/>
            <path style="fill:#FFB792;" d="M33.9,6.2c0,0.6-0.5,1.1-1.1,1.1c-0.6,0-1.1-0.5-1.1-1.1c0-0.6,0.5-1.1,1.1-1.1
		C33.4,5,33.9,5.5,33.9,6.2z"/>
            <path style="fill:#FFF4BD;" d="M25.6,18.1c-2.4,0-4.4-1.9-4.4-4.4v-9c0-2.4,1.9-4.4,4.4-4.4l0,0c2.4,0,4.4,1.9,4.4,4.4l0,9
		C29.9,16.2,28,18.1,25.6,18.1L25.6,18.1z"/>
            <path style="fill:#FFE783;" d="M23,4.8c0-1.4,1.2-2.6,2.6-2.6c1.4,0,2.6,1.2,2.6,2.6v9c0,1.4-1.2,2.6-2.6,2.6
		c-1.4,0-2.6-1.2-2.6-2.6L23,4.8L23,4.8z"/>
            <path style="fill:#FFF4BD;" d="M24.7,4.8c0-0.5,0.4-0.9,0.9-0.9s0.9,0.4,0.9,0.9v9c0,0.5-0.4,0.9-0.9,0.9s-0.9-0.4-0.9-0.9V4.8z"/>
            <path style="fill:#B0CE6F;" d="M17.9,2.3c0,1-0.8,1.8-1.8,1.8l0,0c-1,0-1.8-0.8-1.8-1.8l0,0c0-1,0.8-1.8,1.8-1.8l0,0
		C17.1,0.5,17.9,1.3,17.9,2.3L17.9,2.3z"/>
            <path style="fill:#FFF4BD;" d="M16.5,8.5V5.9c0-2.4-1.9-4.4-4.4-4.4c-2.4,0-4.4,1.9-4.4,4.4v2.6H16.5z"/>
            <path style="fill:#FFE783;" d="M14.7,8.5V5.9c0-1.4-1.2-2.6-2.6-2.6c-1.4,0-2.6,1.2-2.6,2.6v2.6H14.7z"/>
            <g>
                <path style="fill:#FFF4BD;" d="M13,8.5V5.9C13,5.4,12.6,5,12.1,5c-0.5,0-0.9,0.4-0.9,0.9v2.6H13z"/>
                <path style="fill:#FFF4BD;" d="M19.1,19.8c-2.4,0-4.4-1.9-4.4-4.4v-9c0-2.4,1.9-4.4,4.4-4.4l0,0c2.4,0,4.4,1.9,4.4,4.4v9
			C23.4,17.9,21.5,19.8,19.1,19.8L19.1,19.8z"/>
            </g>
            <path style="fill:#FFE783;" d="M16.5,6.5c0-1.4,1.2-2.6,2.6-2.6c1.4,0,2.6,1.2,2.6,2.6v9c0,1.4-1.2,2.6-2.6,2.6
		c-1.4,0-2.6-1.2-2.6-2.6V6.5z"/>
            <path style="fill:#FF8150;" d="M11,6.4c0,1-0.8,1.8-1.8,1.8l0,0c-1,0-1.8-0.8-1.8-1.8l0,0c0-1,0.8-1.8,1.8-1.8l0,0
		C10.1,4.6,11,5.4,11,6.4L11,6.4z"/>
        </g>
        <g>
            <path style="fill:#E9E9E9;" d="M35.9,25.5H9.7c-2.3,0-4.1-1.9-4.1-4.2v-10c0-0.7-0.2-1.4-0.5-2L3.7,7.2C3.5,6.8,3.8,6.3,4.3,6.3
		h37.1c0.5,0,0.7,0.5,0.5,0.9l-1.3,2.2c-0.4,0.6-0.5,1.3-0.5,2v10C40,23.6,38.1,25.5,35.9,25.5L35.9,25.5z M35.9,25.5"/>
            <path style="fill:#E9E9E9;" d="M43.2,15.9h-4v-4.8h4c1.3,0,2.4,1.1,2.4,2.4C45.6,14.8,44.5,15.9,43.2,15.9L43.2,15.9z M40.8,14.3
		h2.4c0.4,0,0.8-0.4,0.8-0.8c0-0.4-0.4-0.8-0.8-0.8h-2.4V14.3z M40.8,14.3"/>
            <path style="fill:#E9E9E9;" d="M6.4,15.9h-4c-1.3,0-2.4-1.1-2.4-2.4c0-1.3,1.1-2.4,2.4-2.4h4V15.9z M2.4,12.7
		c-0.4,0-0.8,0.4-0.8,0.8c0,0.4,0.4,0.8,0.8,0.8h2.4v-1.6H2.4z M2.4,12.7"/>
            <path style="fill:#FFFFFF;" d="M16.8,22.3h-8c-0.4,0-0.8-0.4-0.8-0.8c0-0.4,0.4-0.8,0.8-0.8h8c0.4,0,0.8,0.4,0.8,0.8
		C17.6,21.9,17.2,22.3,16.8,22.3L16.8,22.3z M16.8,22.3"/>
            <path style="fill:#FFFFFF;" d="M14.4,19.1H8.8c-0.4,0-0.8-0.4-0.8-0.8c0-0.4,0.4-0.8,0.8-0.8h5.6c0.4,0,0.8,0.4,0.8,0.8
		C15.2,18.7,14.8,19.1,14.4,19.1L14.4,19.1z M14.4,19.1"/>
            <path style="fill:#FFFFFF;" d="M12.8,15.9h-4c-0.4,0-0.8-0.4-0.8-0.8c0-0.4,0.4-0.8,0.8-0.8h4c0.4,0,0.8,0.4,0.8,0.8
		C13.6,15.5,13.2,15.9,12.8,15.9L12.8,15.9z M12.8,15.9"/>
        </g>
    </symbol>

    <symbol id="icon-pasta" viewBox="0 0 46 42">
        <g>
            <path style="fill:#D2D5D7;" d="M44.8,28.8H1.6c-0.9,0-1.6-0.7-1.6-1.6s0.7-1.6,1.6-1.6h43.2c0.9,0,1.6,0.7,1.6,1.6
		S45.7,28.8,44.8,28.8L44.8,28.8z M44.8,28.8"/>
            <path style="fill:#E6E6E6;" d="M2,28.8c2.4,3.7,12.4,8.2,12.4,13.6H32c0-5.4,10.1-9.9,12.4-13.6H2z M2,28.8"/>
            <path style="fill:#DBB579;" d="M7.2,24c-0.4,0-0.8-0.4-0.8-0.8c0-4.9,4-8.8,8.8-8.8h1.6c0.4,0,0.8,0.4,0.8,0.8
		c0,0.4-0.4,0.8-0.8,0.8h-1.6c-4,0-7.2,3.2-7.2,7.2C8,23.6,7.6,24,7.2,24L7.2,24z M7.2,24"/>
            <path style="fill:#DBB579;" d="M12,24c-0.4,0-0.8-0.4-0.8-0.8c0-2.2,1.8-4,4-4h4c0.4,0,0.8,0.4,0.8,0.8c0,0.4-0.4,0.8-0.8,0.8h-4
		c-1.3,0-2.4,1.1-2.4,2.4C12.8,23.6,12.4,24,12,24L12,24z M12,24"/>
            <path style="fill:#FBD490;" d="M9.6,24c-0.4,0-0.8-0.4-0.8-0.8c0-3.5,2.9-6.4,6.4-6.4h3.2c0.4,0,0.8,0.4,0.8,0.8
		c0,0.4-0.4,0.8-0.8,0.8h-3.2c-2.6,0-4.8,2.2-4.8,4.8C10.4,23.6,10,24,9.6,24L9.6,24z M9.6,24"/>
            <path style="fill:#FBD490;" d="M19.2,23.2h-4c-0.4,0-0.8-0.4-0.8-0.8c0-0.4,0.4-0.8,0.8-0.8h4c0.4,0,0.8,0.4,0.8,0.8
		C20,22.8,19.6,23.2,19.2,23.2L19.2,23.2z M19.2,23.2"/>
            <path style="fill:#FBD490;" d="M38.4,24c-0.4,0-0.8-0.4-0.8-0.8c0-4-3.2-7.2-7.2-7.2h-5.6c-0.4,0-0.8-0.4-0.8-0.8
		c0-0.4,0.4-0.8,0.8-0.8h5.6c4.9,0,8.8,3.9,8.8,8.8C39.2,23.6,38.8,24,38.4,24L38.4,24z M38.4,24"/>
            <path style="fill:#FBD490;" d="M33.6,24c-0.4,0-0.8-0.4-0.8-0.8c0-1.3-1.1-2.4-2.4-2.4h-4c-0.4,0-0.8-0.4-0.8-0.8
		c0-0.4,0.4-0.8,0.8-0.8h4c2.2,0,4,1.8,4,4C34.4,23.6,34,24,33.6,24L33.6,24z M33.6,24"/>
            <path style="fill:#DBB579;" d="M36,24c-0.4,0-0.8-0.4-0.8-0.8c0-2.6-2.2-4.8-4.8-4.8h-4.8c-0.4,0-0.8-0.4-0.8-0.8
		c0-0.4,0.4-0.8,0.8-0.8h4.8c3.5,0,6.4,2.9,6.4,6.4C36.8,23.6,36.4,24,36,24L36,24z M36,24"/>
            <path style="fill:#DBB579;" d="M30.4,23.2h-4c-0.4,0-0.8-0.4-0.8-0.8c0-0.4,0.4-0.8,0.8-0.8h4c0.4,0,0.8,0.4,0.8,0.8
		C31.2,22.8,30.8,23.2,30.4,23.2L30.4,23.2z M30.4,23.2"/>
            <path style="fill:#FBD490;" d="M21.6,24c-0.4,0-0.8-0.4-0.8-0.8c0-7-2.1-10.4-6.4-10.4c-0.4,0-0.8,0.4-0.8,0.8
		c0,0.4-0.4,0.8-0.8,0.8c-0.4,0-0.8-0.4-0.8-0.8c0-1.3,1.1-2.4,2.4-2.4c3.7,0,8,2.1,8,12C22.4,23.6,22,24,21.6,24L21.6,24z M21.6,24
		"/>
            <path style="fill:#DBB579;" d="M24,24c-0.4,0-0.8-0.4-0.8-0.8c0-3.8-0.9-12.8-8.8-12.8c-2.2,0-4,1.8-4,4v0.8c0,0.4-0.4,0.8-0.8,0.8
		c-0.4,0-0.8-0.4-0.8-0.8v-0.8c0-3.1,2.5-5.6,5.6-5.6c6.5,0,10.4,5.4,10.4,14.4C24.8,23.6,24.4,24,24,24L24,24z M24,24"/>
            <path style="fill:#A46F3E;" d="M24,5.2c0,2-1.6,3.6-3.6,3.6c-2,0-3.6-1.6-3.6-3.6c0-2,1.6-3.6,3.6-3.6C22.4,1.6,24,3.2,24,5.2
		L24,5.2z M24,5.2"/>
            <path style="fill:#A46F3E;" d="M38.4,10.8c0,2-1.6,3.6-3.6,3.6c-2,0-3.6-1.6-3.6-3.6c0-2,1.6-3.6,3.6-3.6
		C36.8,7.2,38.4,8.8,38.4,10.8L38.4,10.8z M38.4,10.8"/>
            <path style="fill:#4C312C;" d="M30.4,10c0,2-1.6,3.6-3.6,3.6c-2,0-3.6-1.6-3.6-3.6c0-2,1.6-3.6,3.6-3.6C28.8,6.4,30.4,8,30.4,10
		L30.4,10z M30.4,10"/>
            <path style="fill:#4C312C;" d="M35.2,3.6c0,2-1.6,3.6-3.6,3.6c-2,0-3.6-1.6-3.6-3.6c0-2,1.6-3.6,3.6-3.6C33.6,0,35.2,1.6,35.2,3.6
		L35.2,3.6z M35.2,3.6"/>
            <path style="fill:#F75B57;" d="M33.1,39.2H13.3c0.3,0.5,0.6,1.1,0.8,1.6h18.2C32.5,40.3,32.8,39.7,33.1,39.2L33.1,39.2z M33.1,39.2
		"/>
            <path style="fill:#FFFFFF;" d="M33.1,39.2c0.4-0.5,0.8-1.1,1.3-1.6H12c0.5,0.5,0.9,1.1,1.3,1.6H33.1z M33.1,39.2"/>
            <path style="fill:#88C057;" d="M10.3,36c0.6,0.5,1.2,1.1,1.7,1.6h22.4c0.5-0.5,1.1-1.1,1.7-1.6H10.3z M10.3,36"/>
        </g>

    </symbol>

    <symbol id="icon-risotto" viewBox="0 0 49 27">
        <g>
            <g>
                <path style="clip-path:url(#SVGID_2_);fill:#E6E6E6;" d="M40,25.9H6.4c-1.5,0-1.2-2.3-2.1-3.5l-4.2-2.5c-0.4-0.5,0-1.2,0.6-1.2
			h44.9c0.6,0,1,0.7,0.6,1.2l-4.2,2.5C41.3,23.6,41.5,25.9,40,25.9L40,25.9z M40,25.9"/>
            </g>
            <path style="fill:#FBD490;" d="M42.5,17.6c-0.5-0.3-0.8-0.9-0.7-1.5c0-0.2,0-0.4,0-0.5c-0.2-0.6-0.7-1.1-1.3-1.2
		c-0.3-0.1-0.8,0-0.8-0.1c0-0.8-0.7-1.5-1.5-1.5c-0.3,0-0.7-0.1-0.7-0.4c0-1-0.8-1.8-1.8-1.8c-0.1,0.1-0.2,0.2-0.4,0.3l-2.3,0.7
		c-0.4,0.1-0.9-0.1-1-0.5l-0.4-1.5c-1.5-0.1-2.9-0.1-4.3-0.2c-0.1,1.2-1.1,2.2-2.4,2.2c-1.2,0-2.2-0.9-2.4-2.1
		c-1.8,0.1-3.4,0.3-4.9,0.5l-2,2.2c-0.3,0.3-0.7,0.3-0.9,0.1l-0.8-0.7c-0.3-0.2-0.3-0.6-0.1-0.9c-1.6,0.3-2.9,0.6-3.8,0.9l-0.7,1.3
		c-0.2,0.4-0.7,0.5-1.1,0.3l-1.7-0.9c-0.1,0.2-0.2,0.3-0.2,0.5c0.2,1.1-1,2-1.7,2.1c-0.6,0-0.7,1.2-0.7,1.7c0,0.1-1.5,0.7-1.5,1.5
		c0,0.2,0.1,0.4,0.1,0.6c0,0,0,0.1,0,0.1h40.6C43.1,18.2,42.9,17.8,42.5,17.6L42.5,17.6z M42.5,17.6"/>
            <path style="fill:#F7E2BF;" d="M10.8,15c-0.2,0-0.3,0-0.4-0.1c-0.4-0.2-0.5-0.7-0.2-1.1l0.6-0.9c0.3-0.4,0.7-0.5,1.1-0.2
		c0.4,0.3,0.5,0.8,0.2,1.1l-0.6,0.9C11.3,14.9,11.1,15,10.8,15L10.8,15z M10.8,15"/>
            <path style="fill:#EA5E35;" d="M8.2,13.1L6.1,12c-0.4-0.2-0.5-0.7-0.3-1.1l1.1-2.1C7,8.4,7.5,8.2,7.9,8.4L10,9.5
		c0.4,0.2,0.5,0.7,0.3,1.1l-1.1,2.1C9.1,13.1,8.6,13.3,8.2,13.1L8.2,13.1z M8.2,13.1"/>
            <path style="fill:#F7E2BF;" d="M8.7,16.9c-0.1,0-0.3,0-0.4-0.1l-0.9-0.6c-0.4-0.2-0.5-0.7-0.3-1.1c0.2-0.4,0.7-0.5,1.1-0.3l0.9,0.6
		c0.4,0.2,0.5,0.7,0.3,1.1C9.2,16.8,8.9,16.9,8.7,16.9L8.7,16.9z M8.7,16.9"/>
            <path style="fill:#F7E2BF;" d="M12.4,18.2C12.4,18.2,12.4,18.2,12.4,18.2c-0.5-0.1-0.8-0.5-0.8-0.9l0.1-1.1
		c0.1-0.4,0.5-0.8,0.9-0.7c0.4,0.1,0.8,0.5,0.7,0.9l-0.1,1.1C13.2,17.9,12.8,18.2,12.4,18.2L12.4,18.2z M12.4,18.2"/>
            <path style="fill:#F7E2BF;" d="M15.1,15.4C15.1,15.4,15.1,15.4,15.1,15.4L14,15.3c-0.4,0-0.8-0.4-0.7-0.9c0-0.4,0.4-0.8,0.9-0.7
		l1.1,0.1c0.4,0,0.8,0.4,0.7,0.9C15.9,15.1,15.6,15.4,15.1,15.4L15.1,15.4z M15.1,15.4"/>
            <path style="fill:#F7E2BF;" d="M18.2,17.8c-0.2,0-0.3,0-0.5-0.1c-0.4-0.2-0.5-0.7-0.2-1.1l0.6-0.9c0.3-0.4,0.7-0.5,1.1-0.2
		c0.4,0.3,0.5,0.7,0.2,1.1l-0.6,0.9C18.7,17.7,18.5,17.8,18.2,17.8L18.2,17.8z M18.2,17.8"/>
            <path style="fill:#F7E2BF;" d="M18.5,14.1c-0.1,0-0.3,0-0.4-0.1l-0.9-0.6c-0.4-0.2-0.5-0.7-0.3-1.1c0.2-0.4,0.7-0.5,1.1-0.3
		l0.9,0.6c0.4,0.2,0.5,0.7,0.3,1.1C19,14,18.8,14.1,18.5,14.1L18.5,14.1z M18.5,14.1"/>
            <path style="fill:#F7E2BF;" d="M36.1,16.9c-0.2,0-0.3,0-0.4-0.1c-0.4-0.2-0.5-0.8-0.2-1.1l0.6-0.9c0.3-0.4,0.8-0.5,1.1-0.2
		c0.4,0.2,0.5,0.7,0.2,1.1l-0.6,0.9C36.6,16.8,36.3,16.9,36.1,16.9L36.1,16.9z M36.1,16.9"/>
            <path style="fill:#F7E2BF;" d="M34.3,14.5c-0.1,0-0.3,0-0.4-0.1L33,13.8c-0.4-0.2-0.5-0.7-0.3-1.1c0.2-0.4,0.7-0.5,1.1-0.3l0.9,0.6
		c0.4,0.2,0.5,0.7,0.3,1.1C34.8,14.4,34.6,14.5,34.3,14.5L34.3,14.5z M34.3,14.5"/>
            <path style="fill:#F7E2BF;" d="M22.8,13.5C22.8,13.5,22.7,13.5,22.8,13.5l-1.2-0.1c-0.4,0-0.8-0.4-0.7-0.9c0-0.4,0.4-0.8,0.9-0.7
		l1.1,0.1c0.4,0,0.8,0.4,0.7,0.9C23.6,13.2,23.2,13.5,22.8,13.5L22.8,13.5z M22.8,13.5"/>
            <path style="fill:#F7E2BF;" d="M31.6,19.6C31.6,19.6,31.6,19.6,31.6,19.6l-1.2-0.1c-0.4,0-0.8-0.4-0.7-0.9c0-0.4,0.4-0.8,0.9-0.7
		l1.1,0.1c0.4,0,0.8,0.4,0.7,0.9C32.4,19.3,32,19.6,31.6,19.6L31.6,19.6z M31.6,19.6"/>
            <path style="fill:#F7E2BF;" d="M23.3,17.1c-0.1,0-0.1,0-0.2,0L22,16.8c-0.4-0.1-0.7-0.6-0.6-1c0.1-0.4,0.6-0.7,1-0.6l1.1,0.3
		c0.4,0.1,0.7,0.6,0.6,1C24,16.9,23.6,17.1,23.3,17.1L23.3,17.1z M23.3,17.1"/>
            <path style="fill:#F7E2BF;" d="M27.4,16.7c-0.3,0-0.7-0.2-0.8-0.6c-0.1-0.4,0.1-0.9,0.5-1l1.1-0.3c0.4-0.1,0.9,0.1,1,0.5
		c0.1,0.4-0.1,0.9-0.5,1l-1.1,0.3C27.6,16.6,27.5,16.7,27.4,16.7L27.4,16.7z M27.4,16.7"/>
            <path style="fill:#F7E2BF;" d="M25.7,14.7c-0.2,0-0.4-0.1-0.6-0.2c-0.3-0.3-0.3-0.8,0-1.1l0.8-0.8c0.3-0.3,0.8-0.3,1.1,0
		c0.3,0.3,0.3,0.8,0,1.1l-0.8,0.8C26.1,14.6,25.9,14.7,25.7,14.7L25.7,14.7z M25.7,14.7"/>
            <path style="fill:#F7E2BF;" d="M32.1,16.6c-0.4,0-0.7-0.2-0.8-0.6L31,14.9c-0.1-0.4,0.1-0.9,0.6-1c0.4-0.1,0.9,0.1,1,0.6l0.3,1.1
		c0.1,0.4-0.1,0.9-0.6,1C32.2,16.6,32.2,16.6,32.1,16.6L32.1,16.6z M32.1,16.6"/>
            <path style="fill:#F7E2BF;" d="M29.8,12.3C29.8,12.3,29.8,12.3,29.8,12.3l-1.2-0.1c-0.4,0-0.8-0.4-0.7-0.9c0-0.4,0.4-0.8,0.9-0.7
		l1.1,0.1c0.4,0,0.8,0.4,0.7,0.9C30.6,12,30.2,12.3,29.8,12.3L29.8,12.3z M29.8,12.3"/>
            <path style="fill:#F7994D;" d="M31.9,10.9l-0.7-2.3c-0.1-0.4,0.1-0.9,0.6-1L34.1,7c0.4-0.1,0.9,0.1,1,0.5l0.7,2.3
		c0.1,0.4-0.1,0.9-0.6,1l-2.3,0.7C32.5,11.6,32,11.4,31.9,10.9L31.9,10.9z M31.9,10.9"/>
            <path style="fill:#FDD807;" d="M19.4,5.3L18.7,3c-0.1-0.4,0.1-0.9,0.5-1l2.3-0.7c0.4-0.1,0.9,0.1,1,0.5l0.7,2.3
		c0.1,0.4-0.1,0.9-0.5,1l-2.3,0.7C19.9,6,19.5,5.8,19.4,5.3L19.4,5.3z M19.4,5.3"/>
            <path style="fill:#F6A36E;" d="M27.2,9.1c0,1.3-1.1,2.4-2.4,2.4c-1.3,0-2.4-1.1-2.4-2.4c0-1.3,1.1-2.4,2.4-2.4
		C26.2,6.7,27.2,7.8,27.2,9.1L27.2,9.1z M27.2,9.1"/>
            <path style="fill:#FBB50C;" d="M14.4,5.9c0,1.3-1.1,2.4-2.4,2.4c-1.3,0-2.4-1.1-2.4-2.4c0-1.3,1.1-2.4,2.4-2.4
		C13.4,3.5,14.4,4.6,14.4,5.9L14.4,5.9z M14.4,5.9"/>
            <path style="fill:#71B43D;" d="M19,8.3l-3.4,3.8c-0.2,0.3-0.7,0.3-0.9,0.1l-0.8-0.7c-0.3-0.2-0.3-0.7,0-0.9l3.4-3.8
		c0.2-0.3,0.7-0.3,0.9,0l0.8,0.7C19.2,7.6,19.2,8.1,19,8.3L19,8.3z M19,8.3"/>
            <path style="fill:#98DF2A;" d="M28.2,6.3l-1.7-4.7c-0.1-0.3,0.1-0.7,0.4-0.9l1-0.4c0.3-0.1,0.7,0.1,0.9,0.4l1.7,4.7
		c0.1,0.4-0.1,0.7-0.4,0.9l-1,0.4C28.7,6.9,28.3,6.7,28.2,6.3L28.2,6.3z M28.2,6.3"/>
            <path style="fill:#FFFFFF;" d="M39.2,23.5H14.4c-0.4,0-0.8-0.4-0.8-0.8c0-0.4,0.4-0.8,0.8-0.8h24.8c0.4,0,0.8,0.4,0.8,0.8
		C40,23.2,39.7,23.5,39.2,23.5L39.2,23.5z M39.2,23.5"/>
            <path style="fill:#FFFFFF;" d="M10.5,23.5H7.2c-0.4,0-0.8-0.4-0.8-0.8c0-0.4,0.4-0.8,0.8-0.8h3.3c0.4,0,0.8,0.4,0.8,0.8
		C11.3,23.2,10.9,23.5,10.5,23.5L10.5,23.5z M10.5,23.5"/>
        </g>
    </symbol>

    <symbol id="icon-garnish" viewBox="0 0 41 46">
        <g>
            <g>
                <path style="clip-path:url(#SVGID_2_);fill:#88C057;" d="M31.1,22.1c1.2,0.3,2.6,0.3,4-0.3c2.5-1.1,4.3-3.4,4.3-6.1
			c0.1-3-1.9-5.6-4.5-6.5c-0.2-2.7-2.5-4.9-5.3-4.9c0,0,0,0,0,0c0.1-0.4,0-0.9-0.1-1.3c-0.4-1.3-1.5-2.3-2.8-2.4
			c-1.1-0.1-2.1,0.3-2.8,1c-0.7-0.6-1.5-1-2.5-1c-2.1,0-3.8,1.7-3.8,3.8c0,0,0,0,0,0C15,4.4,13,6.5,13,9.1c0,0.4,0.1,0.8,0.1,1.1
			c-3,0.1-5.4,2.6-5.4,5.6c0,1,0.3,2,0.8,2.8C7.6,19.5,7,20.6,7,21.9c0,1.8,1.2,3.3,2.8,3.9c-0.2,7.4,2.4,11.7,7.5,17.6
			c0.1,0.1,0.2,0.2,0.3,0.3l0.1,0.1c2.1,2.4,6.9,0.6,5.9-2.5C18,25.2,34.9,27.6,34.9,27.6s0.5-4.9-3.9-5.1
			C31,22.4,31,22.2,31.1,22.1C31,22.1,31,22.1,31.1,22.1L31.1,22.1z M31.1,22.1"/>
                <path style="clip-path:url(#SVGID_2_);fill:#659C35;" d="M17.6,43.8L17.6,43.8c-0.2-0.2-0.2-0.3-0.3-0.4
			c-5.1-5.9-7.7-10.2-7.5-17.6C8.1,25.3,7,23.7,7,21.9c0-1.3,0.6-2.4,1.5-3.2c-0.5-0.8-0.8-1.8-0.8-2.8c0-3,2.4-5.5,5.4-5.6
			C13.1,9.9,13,9.5,13,9.1c0-2,1.3-3.8,3-4.5c-0.1-0.4-0.3-0.8-0.5-1.2c-1-2-2.7-3.2-4.3-2.9C10,0.7,9.1,1.8,8.7,3.2
			c-1.1-0.7-2.3-1-3.4-0.6C2.9,3.4,2.2,6.8,3.5,9.9c0,0,0,0,0,0C1,11.1,0.3,14.8,1.9,18c0.2,0.5,0.5,0.9,0.8,1.3
			C-0.1,20.5-0.8,24,1,27.1c0.6,1,1.3,1.8,2.2,2.4c-0.4,1-0.3,2.1,0.3,3.2c0.8,1.5,2.4,2.3,3.9,2.3c2.6,5.2,5.9,7.2,10.7,9.2
			c0.1,0,0.1,0,0.2,0.1C18,44.2,17.8,44,17.6,43.8L17.6,43.8z M17.6,43.8"/>
            </g>
            <path style="fill:#659C35;" d="M19.5,20c0-0.1,0.1-0.2,0.1-0.3c0.6-1.4,1.3-2.7,2-3.7c3.6-0.7,6.3,0.4,6.4,0.4
		c0.1,0,0.2,0.1,0.3,0.1c0.3,0,0.6-0.2,0.7-0.5c0.2-0.4,0-0.9-0.4-1.1c-0.1,0-2.3-1-5.5-0.8c1.6-1.6,2.9-2.4,3.1-2.5
		c1.2-0.6,2.9,0.2,3.4,0.5c0.1,0.1,0.3,0.1,0.4,0.1c0.3,0,0.5-0.1,0.7-0.4c0.2-0.4,0.1-0.9-0.3-1.1c-0.1-0.1-1.9-1.1-3.7-0.9
		c0.2-0.6,0.5-1.2,0.7-1.5c0.3-0.3,0.2-0.9-0.1-1.1c-0.4-0.3-0.9-0.2-1.1,0.1C26,7.5,25,8.9,25,10.5c-1.2,0.7-4.2,2.9-6.3,7.2
		c-0.1,0.2-0.2,0.5-0.3,0.7c-2.2-1.5-1.8-4.1-1.8-4.3c0.1-0.4-0.2-0.8-0.7-0.9c-0.4-0.1-0.8,0.2-0.9,0.7c-0.2,1.4,0.1,4.4,2.8,6
		c-0.6,1.8-1,3.8-1.2,6.3c0,0.1,0,0.2,0,0.2c-0.1,1.7,0,3.6,0.3,5.7c-1-0.6-1.5-1.4-1.5-1.4c-0.2-0.4-0.7-0.5-1.1-0.3
		c-0.4,0.2-0.5,0.7-0.3,1.1c0,0.1,1,1.9,3.2,2.5c0.6,3.2,1.6,6.7,3.3,10.7c0.5,0,1.1-0.2,1.6-0.4c0,0,0,0,0,0
		c-1.7-4.2-2.8-7.8-3.4-11c0,0,0,0,0-0.1c-0.4-2.4-0.6-4.6-0.5-6.6c1.1-1.9,4.4-2,4.4-2c0.4,0,0.8-0.4,0.8-0.8
		c0-0.4-0.4-0.8-0.8-0.8h0c-0.1,0-2.4,0.1-4.2,1.2c0.2-1.6,0.6-3,1-4.2C19.4,20.1,19.5,20,19.5,20L19.5,20z M19.5,20"/>
        </g>
        <g>
            <path style="fill:#A5A5A5;" d="M20.5,41.9c-0.1-0.1-0.1-0.2-0.1-0.3c0-0.2,0.2-0.4,0.5-0.4l2.5,0.3c0.2,0,0.4,0.2,0.4,0.5
		c0,0.2-0.2,0.4-0.5,0.4L20.8,42C20.7,42,20.6,41.9,20.5,41.9L20.5,41.9z M20.5,41.9"/>
            <path style="fill:#A5A5A5;" d="M21.2,43.6c-0.2-0.2-0.1-0.5,0.1-0.6l1.9-1.5c0.2-0.1,0.5-0.1,0.6,0.1c0.1,0.2,0.1,0.5-0.1,0.6
		l-1.9,1.5C21.6,43.9,21.3,43.8,21.2,43.6L21.2,43.6z M21.2,43.6"/>
            <path style="fill:#A5A5A5;" d="M22.8,44.7c-0.1-0.1-0.1-0.2-0.1-0.3l0.3-2.5c0-0.2,0.2-0.4,0.5-0.4c0.2,0,0.4,0.2,0.4,0.5l-0.3,2.5
		c0,0.2-0.2,0.4-0.5,0.4C23,44.8,22.9,44.8,22.8,44.7L22.8,44.7z M22.8,44.7"/>
            <path style="fill:#A5A5A5;" d="M24.5,44.9C24.5,44.8,24.5,44.8,24.5,44.9L23,42.1c-0.1-0.2,0-0.5,0.2-0.6c0.2-0.1,0.5,0,0.6,0.2
		l1.4,2.7c0.1,0.2,0,0.5-0.2,0.6C24.8,45.1,24.6,45,24.5,44.9L24.5,44.9z M24.5,44.9"/>
            <g>
                <path style="clip-path:url(#SVGID_4_);fill:#A5A5A5;" d="M20.8,40.1c-0.1-0.2-0.1-0.4,0-0.6c0.2-0.2,0.4-0.2,0.6,0l2.3,2
			c0.2,0.2,0.2,0.4,0,0.6c-0.2,0.2-0.4,0.2-0.6,0L20.8,40.1C20.8,40.1,20.8,40.1,20.8,40.1L20.8,40.1z M20.8,40.1"/>
                <path style="clip-path:url(#SVGID_4_);fill:#E9D3EA;" d="M38.1,30.6l2-1.6l-1.8-0.8L37,29.3c-3.4-3.3-8.8-3.6-12.5-0.4
			c-3.6,3.1-4.3,8.5-1.5,12.3c3.1,4.4,9.2,5.2,13.4,1.9C40.1,40.1,40.8,34.6,38.1,30.6L38.1,30.6z M38.1,30.6"/>
            </g>
            <path style="fill:#9777A8;" d="M23,42.2c0,0,0-0.1-0.1-0.1c-1-2.6-0.7-6,0.8-8.6c1.4-2.5,3.7-4.2,6.5-4.7c0.2,0,0.5,0.1,0.5,0.3
		c0,0.2-0.1,0.5-0.3,0.5c-3.2,0.6-5,2.7-5.9,4.3c-1.4,2.4-1.7,5.6-0.8,7.9c0.1,0.2,0,0.5-0.2,0.6C23.3,42.4,23.1,42.3,23,42.2
		L23,42.2z M23,42.2"/>
            <path style="fill:#9777A8;" d="M23,42.2c-0.1-0.1-0.1-0.3,0-0.5c0.1-0.2,0.4-0.3,0.6-0.1c2.1,1.4,5.2,1.8,7.9,1
		c1.8-0.5,4.2-1.8,5.5-4.8c0.1-0.2,0.3-0.3,0.6-0.2c0.2,0.1,0.3,0.4,0.2,0.6c-1.1,2.6-3.3,4.5-6,5.3c-2.9,0.9-6.3,0.4-8.6-1.1
		C23.1,42.3,23,42.2,23,42.2L23,42.2z M23,42.2"/>
            <path style="fill:#9777A8;" d="M23.1,42.4c0-0.1-0.1-0.1-0.1-0.2c-0.5-3.2,4.1-9.6,9.5-11.8c0.2-0.1,0.5,0,0.6,0.2
		c0.1,0.2,0,0.5-0.2,0.6c-5.3,2.2-9.4,8.3-9,10.9c0,0.2-0.1,0.5-0.4,0.5C23.4,42.5,23.2,42.5,23.1,42.4L23.1,42.4z M23.1,42.4"/>
            <path style="fill:#9777A8;" d="M22.9,42c-0.1-0.1-0.1-0.3-0.1-0.4c0.1-0.2,0.3-0.3,0.6-0.2c2.4,0.9,9.3-1.6,12.6-6.4
		c0.1-0.2,0.4-0.2,0.6-0.1c0.2,0.1,0.2,0.4,0.1,0.6c-3.3,4.8-10.6,7.9-13.6,6.7C23,42.1,22.9,42.1,22.9,42L22.9,42z M22.9,42"/>
            <path style="fill:#9777A8;" d="M23.1,42.1c-0.2-0.2-0.1-0.5,0.1-0.6l12.4-10c0.2-0.1,0.5-0.1,0.6,0.1c0.1,0.2,0.1,0.5-0.1,0.6
		l-12.4,10C23.5,42.3,23.2,42.3,23.1,42.1L23.1,42.1z M23.1,42.1"/>
        </g>
    </symbol>

    <symbol id="icon-mustard" viewBox="0 0 31 46">
        <g>
            <path style="fill:#ED7161;" d="M29.5,46.4H12.1c-0.9,0-1.7-0.8-1.7-1.7V10.1c0-0.7,0.6-1.3,1.3-1.3h18.2c0.7,0,1.3,0.6,1.3,1.3
		v34.6C31.2,45.6,30.4,46.4,29.5,46.4L29.5,46.4z M29.5,46.4"/>
            <path style="fill:#D13834;" d="M25.6,8.8H16L19.7,0h2.2L25.6,8.8z M25.6,8.8"/>
            <rect x="10.4" y="12.8" style="fill:#D75A4A;" width="20.8" height="1.6"/>
            <rect x="13.6" y="8.8" style="fill:#D75A4A;" width="1.6" height="4.8"/>
            <rect x="17.6" y="8.8" style="fill:#D75A4A;" width="1.6" height="4.8"/>
            <rect x="21.6" y="8.8" style="fill:#D75A4A;" width="1.6" height="4.8"/>
            <rect x="26.4" y="8.8" style="fill:#D75A4A;" width="1.6" height="4.8"/>
            <path style="fill:#D13834;" d="M28.8,28.8c0,4.4-3.6,8-8,8s-8-3.6-8-8c0-4.4,3.6-8,8-8S28.8,24.4,28.8,28.8L28.8,28.8z M28.8,28.8"
            />
        </g>
        <g>
            <path style="fill:#F9DA49;" d="M16.9,46.4H1.5c-0.8,0-1.5-0.7-1.5-1.5V14.3c0-0.6,0.5-1.1,1.1-1.1h16.1c0.6,0,1.1,0.5,1.1,1.1v30.6
		C18.4,45.7,17.7,46.4,16.9,46.4L16.9,46.4z M16.9,46.4"/>
            <rect y="16.7" style="fill:#F9EA80;" width="18.4" height="1.4"/>
            <rect x="2.8" y="13.1" style="fill:#F9EA80;" width="1.4" height="4.2"/>
            <rect x="6.4" y="13.1" style="fill:#F9EA80;" width="1.4" height="4.2"/>
            <rect x="9.9" y="13.1" style="fill:#F9EA80;" width="1.4" height="4.2"/>
            <rect x="14.2" y="13.1" style="fill:#F9EA80;" width="1.4" height="4.2"/>
            <path style="fill:#F9EA80;" d="M9.2,24.5l7.1,7.1l-7.1,7.1l-7.1-7.1L9.2,24.5z M9.2,24.5"/>
            <path style="fill:#F9D70B;" d="M13.4,13.1H5l3.3-7.8h2L13.4,13.1z M13.4,13.1"/>
        </g>
    </symbol>

    <symbol id="icon-frappe" viewBox="0 0 32 49">
        <g>
            <path style="fill:#00D7EC;" d="M23.5,7.3l-0.9,2.3c0.4,0.5,0.8,1,1.1,1.5L25,7.9L23.5,7.3z M23.5,7.3"/>
            <path style="fill:#FAF5E5;" d="M24.8,14.9c0.2-0.9,0.1-1.9-0.4-2.8C22.3,8,18,5.3,13.1,5.3C8.2,5.3,3.9,8,1.8,12.1
		C1.3,13,1.2,14,1.4,14.9H24.8z M24.8,14.9"/>
            <path style="fill:#00D7EC;" d="M24.8,5.4L26.4,7l-1.1,1.1l-1.6-1.6L24.8,5.4z M24.8,5.4"/>
            <path style="fill:#00D7EC;" d="M26.4,3.8L28,5.4l-1.1,1.1L25.3,5L26.4,3.8z M26.4,3.8"/>
            <path style="fill:#00D7EC;" d="M28,2.2l1.6,1.6L28.5,5l-1.6-1.6L28,2.2z M28,2.2"/>
            <path style="fill:#00D7EC;" d="M29.6,0.6l1.6,1.6l-1.1,1.1l-1.6-1.6L29.6,0.6z M29.6,0.6"/>
            <path style="fill:#3DABEF;" d="M22.5,10l-2,5.3h1.7l1.4-3.8C23.3,11,22.9,10.5,22.5,10L22.5,10z M22.5,10"/>
            <g>
                <path style="clip-path:url(#SVGID_2_);fill:#A46F3E;" d="M17.7,47.6H8.4c-1.5,0-2.7-1-3-2.5l-5-29.5c-0.1-0.4,0.2-0.7,0.6-0.7
			h24.1c0.4,0,0.7,0.3,0.6,0.7l-5,29.5C20.5,46.6,19.2,47.6,17.7,47.6L17.7,47.6z M17.7,47.6"/>
                <path style="clip-path:url(#SVGID_2_);fill:#8E5B32;" d="M17.7,48H8.4c-1.7,0-3.1-1.2-3.4-2.8L0,15.7c-0.1-0.3,0-0.6,0.2-0.8
			c0.2-0.2,0.5-0.4,0.8-0.4h24.1c0.3,0,0.6,0.1,0.8,0.4c0.2,0.2,0.3,0.5,0.2,0.8l-5,29.5C20.8,46.8,19.4,48,17.7,48L17.7,48z
			 M1,15.3c-0.1,0-0.1,0.1-0.2,0.1c0,0-0.1,0.1,0,0.2l5,29.5c0.2,1.3,1.3,2.2,2.6,2.2h9.3c1.3,0,2.4-0.9,2.6-2.2l5-29.5
			c0-0.1,0-0.2,0-0.2c0,0-0.1-0.1-0.2-0.1H1z M1,15.3"/>
            </g>
            <path style="fill:#CC9669;" d="M11,32.5l-1.8,1.6c-0.6,0.6-1.7,0.6-2.3-0.1l-1.6-1.8c-0.6-0.6-0.6-1.7,0.1-2.3l1.8-1.6
		c0.6-0.6,1.7-0.6,2.3,0.1l1.6,1.8C11.6,30.9,11.6,31.9,11,32.5L11,32.5z M11,32.5"/>
            <path style="fill:#E0AB85;" d="M15.8,26.3L14,28c-0.6,0.6-1.7,0.6-2.3-0.1l-1.6-1.8c-0.6-0.6-0.6-1.7,0.1-2.3l1.8-1.6
		c0.6-0.6,1.7-0.6,2.3,0.1l1.6,1.8C16.4,24.7,16.4,25.7,15.8,26.3L15.8,26.3z M15.8,26.3"/>
            <path style="fill:#DBB59C;" d="M9.4,22.3L7.6,24C7,24.6,6,24.5,5.4,23.9l-1.6-1.8c-0.6-0.6-0.6-1.7,0.1-2.3l1.8-1.6
		c0.6-0.6,1.7-0.6,2.3,0.1l1.6,1.8C10.1,20.7,10,21.7,9.4,22.3L9.4,22.3z M9.4,22.3"/>
            <path style="fill:#DBB59C;" d="M18.2,43.1l-1.8,1.6c-0.6,0.6-1.7,0.6-2.3-0.1l-1.6-1.8c-0.6-0.6-0.6-1.7,0.1-2.3l1.8-1.6
		c0.6-0.6,1.7-0.6,2.3,0.1l1.6,1.8C18.9,41.5,18.8,42.5,18.2,43.1L18.2,43.1z M18.2,43.1"/>
            <path style="fill:#915D33;" d="M20.5,15.3L9.1,44.9l1.5,0.6l11.6-30.2H20.5z M20.5,15.3"/>
            <path style="fill:#6A3311;" d="M17.1,28.9c0,0.4-0.4,0.8-0.8,0.8c-0.4,0-0.8-0.4-0.8-0.8c0-0.4,0.4-0.8,0.8-0.8
		C16.7,28.1,17.1,28.5,17.1,28.9L17.1,28.9z M17.1,28.9"/>
            <path style="fill:#6A3311;" d="M18.7,32.9c0,0.4-0.4,0.8-0.8,0.8s-0.8-0.4-0.8-0.8c0-0.4,0.4-0.8,0.8-0.8S18.7,32.5,18.7,32.9
		L18.7,32.9z M18.7,32.9"/>
            <path style="fill:#CC9669;" d="M21.1,36.9c0,0.4-0.4,0.8-0.8,0.8c-0.4,0-0.8-0.4-0.8-0.8c0-0.4,0.4-0.8,0.8-0.8
		C20.7,36.1,21.1,36.5,21.1,36.9L21.1,36.9z M21.1,36.9"/>
            <path style="fill:#E0AB85;" d="M14.7,34.5c0,0.4-0.4,0.8-0.8,0.8c-0.4,0-0.8-0.4-0.8-0.8c0-0.4,0.4-0.8,0.8-0.8
		C14.3,33.7,14.7,34.1,14.7,34.5L14.7,34.5z M14.7,34.5"/>
            <path style="fill:#E0AB85;" d="M20.3,28.1c0,0.4-0.4,0.8-0.8,0.8c-0.4,0-0.8-0.4-0.8-0.8c0-0.4,0.4-0.8,0.8-0.8
		C19.9,27.3,20.3,27.7,20.3,28.1L20.3,28.1z M20.3,28.1"/>
            <path style="fill:#6A3311;" d="M8.3,39.4c0,0.4-0.4,0.8-0.8,0.8c-0.4,0-0.8-0.4-0.8-0.8c0-0.4,0.4-0.8,0.8-0.8
		C7.9,38.6,8.3,39,8.3,39.4L8.3,39.4z M8.3,39.4"/>
            <path style="fill:#E0AB85;" d="M9.9,44.2c0,0.4-0.4,0.8-0.8,0.8c-0.4,0-0.8-0.4-0.8-0.8c0-0.4,0.4-0.8,0.8-0.8
		C9.5,43.4,9.9,43.8,9.9,44.2L9.9,44.2z M9.9,44.2"/>
            <path style="fill:#FAF5E5;" d="M5.1,12.6c0,0,2.5-4.7,8.9-4.6"/>
            <path style="fill:#FFFFFF;" d="M5.1,13.4c-0.1,0-0.3,0-0.4-0.1c-0.4-0.2-0.5-0.7-0.3-1.1c0.1-0.2,2.7-5,9.4-5c0.1,0,0.1,0,0.2,0
		c0.4,0,0.8,0.4,0.8,0.8c0,0.4-0.4,0.8-0.8,0.8c-0.1,0-0.1,0-0.2,0c-5.8,0-8,4.1-8,4.2C5.7,13.3,5.4,13.4,5.1,13.4L5.1,13.4z
		 M5.1,13.4"/>
        </g>
    </symbol>

    <symbol id="" viewBox="0 0 132.4 148">

    </symbol>


</svg>